<svg width="16" height="16" viewBox="0 0 16 16" fill="none" xmlns="http://www.w3.org/2000/svg">
<g clip-path="url(#clip0_58_311)">
<path d="M8 7.33331V7.33998" stroke="#29292A" stroke-width="2" stroke-linecap="round" stroke-linejoin="round"/>
<path d="M5.33337 7.33331V7.33998" stroke="#29292A" stroke-width="2" stroke-linecap="round" stroke-linejoin="round"/>
<path d="M10.6666 7.33331V7.33998" stroke="#29292A" stroke-width="2" stroke-linecap="round" stroke-linejoin="round"/>
<path d="M12 2.66669C12.5304 2.66669 13.0391 2.8774 13.4142 3.25247C13.7893 3.62755 14 4.13625 14 4.66669V10C14 10.5305 13.7893 11.0392 13.4142 11.4142C13.0391 11.7893 12.5304 12 12 12H8.66667L5.33333 14V12H4C3.46957 12 2.96086 11.7893 2.58579 11.4142C2.21071 11.0392 2 10.5305 2 10V4.66669C2 4.13625 2.21071 3.62755 2.58579 3.25247C2.96086 2.8774 3.46957 2.66669 4 2.66669H12Z" stroke="#29292A" stroke-width="2" stroke-linecap="round" stroke-linejoin="round"/>
</g>
<defs>
<clipPath id="clip0_58_311">
<rect width="16" height="16" fill="white"/>
</clipPath>
</defs>
</svg>
