<svg width="100" height="28" viewBox="0 0 100 28" fill="none" xmlns="http://www.w3.org/2000/svg">
<g clip-path="url(#clip0_1767_5843)">
<path d="M7.77382 9.80126L10.0766 7.56831C9.46584 7.56831 8.88013 7.80356 8.44828 8.22232C8.01643 8.64108 7.77382 9.20904 7.77382 9.80126ZM15.1928 17.0877H13.2147C13.1831 17.0844 13.1512 17.088 13.1213 17.0982C13.0914 17.1084 13.0643 17.125 13.0418 17.1468C13.0194 17.1685 13.0023 17.1949 12.9918 17.2239C12.9812 17.2529 12.9775 17.2838 12.9809 17.3144C12.9809 17.4781 13.0762 17.5242 13.2233 17.52H15.1582C15.2967 17.52 15.4049 17.52 15.4049 17.327C15.4049 17.1339 15.3486 17.0877 15.1928 17.0877ZM15.2404 16.4833H13.1671C13.0112 16.4833 12.8771 16.4833 12.8857 16.6974C12.8944 16.9114 13.0156 16.924 13.1757 16.924H15.249C15.4179 16.924 15.5044 16.8485 15.5001 16.6722C15.4958 16.4959 15.3702 16.4833 15.2404 16.4833ZM15.288 13.0667C15.1365 12.7058 14.9201 12.3448 14.4483 12.4875C14.3553 12.521 14.2539 12.5252 14.1583 12.4996C14.0627 12.474 13.9779 12.4198 13.9159 12.3448C13.7687 12.1853 13.6259 12.2147 13.4571 12.2231C13.2864 12.2452 13.122 12.3 12.9734 12.3843C12.8247 12.4686 12.6949 12.5807 12.5914 12.7142C12.4918 12.8168 12.4256 12.9455 12.401 13.0843C12.3764 13.2231 12.3944 13.3659 12.4529 13.4949C12.4951 13.6266 12.5876 13.7378 12.7115 13.8057C12.8353 13.8735 12.9813 13.893 13.1194 13.86C13.2439 13.8408 13.3713 13.8516 13.4904 13.8915C13.6095 13.9315 13.7166 13.9993 13.8022 14.0889C13.8878 14.1786 13.9493 14.2873 13.9812 14.4056C14.0131 14.5238 14.0145 14.6478 13.9851 14.7666C13.9544 15.1119 14.0345 15.4579 14.2145 15.7572C14.2578 15.8411 14.2968 15.9083 14.4223 15.8999C14.8032 15.8747 15.5347 15.0604 15.4308 14.6911C15.3863 14.5697 15.3875 14.4369 15.4343 14.3163C15.481 14.1957 15.5703 14.095 15.6862 14.0321C15.8644 13.8885 15.9978 13.6995 16.0714 13.4865C15.5953 13.6124 15.4222 13.3857 15.288 13.0667ZM15.9243 14.7456C15.6473 14.838 15.604 15.0436 15.591 15.2703C15.591 15.3417 15.6473 15.4046 15.6992 15.3794C15.8983 15.2787 15.881 15.0604 15.9546 14.8883C15.9676 14.8632 15.9373 14.8128 15.9113 14.7498L15.9243 14.7456ZM14.0933 21.7845C14.8941 21.8306 15.5131 21.4949 16.1797 20.945H13.5177C13.9469 20.6608 14.2726 20.2525 14.4483 19.7782C14.4677 19.7074 14.5087 19.644 14.5658 19.5961C14.6229 19.5482 14.6936 19.518 14.7686 19.5095C15.249 19.413 15.4438 19.0604 15.3702 18.5358C15.3611 18.441 15.3325 18.3488 15.2863 18.2648C15.24 18.1808 15.177 18.1066 15.1008 18.0464C15.0247 17.9862 14.937 17.9414 14.8428 17.9144C14.7486 17.8875 14.6498 17.879 14.5522 17.8894C14.2708 17.8894 13.9851 17.8894 13.6865 17.8894C13.505 17.8651 13.3208 17.9101 13.173 18.0151C13.0252 18.1201 12.9252 18.2767 12.8944 18.4518C12.8519 18.5518 12.8313 18.6591 12.8336 18.7672C12.8359 18.8752 12.8613 18.9816 12.908 19.0798C12.9547 19.1779 13.0219 19.2656 13.1052 19.3374C13.1885 19.4092 13.2862 19.4635 13.3921 19.497C13.6432 19.5725 13.5956 19.6397 13.5004 19.795C13.3397 20.0588 13.0854 20.2568 12.785 20.3518C12.4846 20.4469 12.1587 20.4324 11.8685 20.3112C10.7577 19.9104 9.73107 19.3173 8.83862 18.561L7.73487 17.6376C7.69484 17.9899 7.75857 18.3461 7.91867 18.6647C8.07878 18.9834 8.3287 19.2516 8.63951 19.4382C9.17191 19.8076 9.71729 20.1643 10.2627 20.5253C10.3406 20.6806 10.2324 20.647 10.1458 20.6344C7.97262 20.3135 5.88315 19.5911 3.99077 18.5064C3.80032 19.3207 3.79599 19.3459 4.53183 19.6523C5.26766 19.9587 5.93424 20.2567 6.6441 20.5379C6.8043 20.5952 6.94966 20.6857 7.07002 20.8032C7.19039 20.9206 7.28286 21.0621 7.34098 21.2178C7.63964 21.9356 7.9686 22.6407 8.29324 23.35C8.35852 23.5387 8.47697 23.7059 8.63519 23.8327C8.73523 23.8959 8.85353 23.9264 8.97272 23.9196C9.09192 23.9128 9.20572 23.8691 9.29744 23.795C9.4446 23.6942 9.26714 23.5263 9.21087 23.4088C8.85161 22.6533 8.47503 21.9104 8.08547 21.1171C8.24562 21.1381 8.35384 21.1465 8.45339 21.1675C10.3145 21.5122 12.1999 21.7199 14.0933 21.7887V21.7845ZM16.7207 10.9765C16.3936 10.5033 15.9272 10.1365 15.3822 9.92391C14.8372 9.71131 14.2387 9.66272 13.6648 9.78447C13.0694 9.87273 12.5145 10.1311 12.0712 10.5266C11.6279 10.9221 11.3162 11.4367 11.176 12.0048C10.9687 12.7055 11.0462 13.4565 11.3924 14.1035C11.479 14.2839 11.5785 14.5232 11.8252 14.4015C12.072 14.2797 11.9638 14.0783 11.8772 13.8978C11.8374 13.8159 11.8027 13.7319 11.7733 13.646C11.6262 13.2761 11.5711 12.8778 11.6127 12.4834C11.6543 12.089 11.7913 11.7097 12.0126 11.3763C12.2339 11.043 12.5332 10.765 12.8862 10.565C13.2392 10.3651 13.6359 10.2487 14.0441 10.2255C14.4522 10.2022 14.8602 10.2728 15.2349 10.4313C15.6097 10.5898 15.9405 10.8319 16.2005 11.1379C16.4605 11.4438 16.6423 11.805 16.7312 12.1919C16.8201 12.5789 16.8136 12.9807 16.7121 13.3647C16.6227 13.6889 16.4763 13.9956 16.2792 14.2713C16.2552 14.2969 16.2367 14.3269 16.2249 14.3596C16.2131 14.3923 16.2083 14.4269 16.2108 14.4614C16.2132 14.4959 16.2228 14.5296 16.239 14.5604C16.2553 14.5913 16.2778 14.6186 16.3052 14.6407C16.336 14.6653 16.3721 14.683 16.4107 14.6925C16.4494 14.7021 16.4898 14.7034 16.529 14.6962C16.5682 14.6889 16.6053 14.6735 16.6377 14.6508C16.6701 14.6282 16.6969 14.599 16.7164 14.5652C16.8033 14.4573 16.8801 14.3421 16.9458 14.221C17.2409 13.7192 17.3769 13.1443 17.3369 12.5679C17.2969 11.9916 17.0825 11.4395 16.7207 10.9807V10.9765ZM16.7207 10.9765C16.3936 10.5033 15.9272 10.1365 15.3822 9.92391C14.8372 9.71131 14.2387 9.66272 13.6648 9.78447C13.0694 9.87273 12.5145 10.1311 12.0712 10.5266C11.6279 10.9221 11.3162 11.4367 11.176 12.0048C10.9687 12.7055 11.0462 13.4565 11.3924 14.1035C11.479 14.2839 11.5785 14.5232 11.8252 14.4015C12.072 14.2797 11.9638 14.0783 11.8772 13.8978C11.8374 13.8159 11.8027 13.7319 11.7733 13.646C11.6262 13.2761 11.5711 12.8778 11.6127 12.4834C11.6543 12.089 11.7913 11.7097 12.0126 11.3763C12.2339 11.043 12.5332 10.765 12.8862 10.565C13.2392 10.3651 13.6359 10.2487 14.0441 10.2255C14.4522 10.2022 14.8602 10.2728 15.2349 10.4313C15.6097 10.5898 15.9405 10.8319 16.2005 11.1379C16.4605 11.4438 16.6423 11.805 16.7312 12.1919C16.8201 12.5789 16.8136 12.9807 16.7121 13.3647C16.6227 13.6889 16.4763 13.9956 16.2792 14.2713C16.2552 14.2969 16.2367 14.3269 16.2249 14.3596C16.2131 14.3923 16.2083 14.4269 16.2108 14.4614C16.2132 14.4959 16.2228 14.5296 16.239 14.5604C16.2553 14.5913 16.2778 14.6186 16.3052 14.6407C16.336 14.6653 16.3721 14.683 16.4107 14.6925C16.4494 14.7021 16.4898 14.7034 16.529 14.6962C16.5682 14.6889 16.6053 14.6735 16.6377 14.6508C16.6701 14.6282 16.6969 14.599 16.7164 14.5652C16.8033 14.4573 16.8801 14.3421 16.9458 14.221C17.2409 13.7192 17.3769 13.1443 17.3369 12.5679C17.2969 11.9916 17.0825 11.4395 16.7207 10.9807V10.9765ZM14.0933 21.7845C14.8941 21.8306 15.5131 21.4949 16.1797 20.945H13.5177C13.9469 20.6608 14.2726 20.2525 14.4483 19.7782C14.4677 19.7074 14.5087 19.644 14.5658 19.5961C14.6229 19.5482 14.6936 19.518 14.7686 19.5095C15.249 19.413 15.4438 19.0604 15.3702 18.5358C15.3611 18.441 15.3325 18.3488 15.2863 18.2648C15.24 18.1808 15.177 18.1066 15.1008 18.0464C15.0247 17.9862 14.937 17.9414 14.8428 17.9144C14.7486 17.8875 14.6498 17.879 14.5522 17.8894C14.2708 17.8894 13.9851 17.8894 13.6865 17.8894C13.505 17.8651 13.3208 17.9101 13.173 18.0151C13.0252 18.1201 12.9252 18.2767 12.8944 18.4518C12.8519 18.5518 12.8313 18.6591 12.8336 18.7672C12.8359 18.8752 12.8613 18.9816 12.908 19.0798C12.9547 19.1779 13.0219 19.2656 13.1052 19.3374C13.1885 19.4092 13.2862 19.4635 13.3921 19.497C13.6432 19.5725 13.5956 19.6397 13.5004 19.795C13.3397 20.0588 13.0854 20.2568 12.785 20.3518C12.4846 20.4469 12.1587 20.4324 11.8685 20.3112C10.7577 19.9104 9.73107 19.3173 8.83862 18.561L7.73487 17.6376C7.69484 17.9899 7.75857 18.3461 7.91867 18.6647C8.07878 18.9834 8.3287 19.2516 8.63951 19.4382C9.17191 19.8076 9.71729 20.1643 10.2627 20.5253C10.3406 20.6806 10.2324 20.647 10.1458 20.6344C7.97262 20.3135 5.88315 19.5911 3.99077 18.5064C3.80032 19.3207 3.79599 19.3459 4.53183 19.6523C5.26766 19.9587 5.93424 20.2567 6.6441 20.5379C6.8043 20.5952 6.94966 20.6857 7.07002 20.8032C7.19039 20.9206 7.28286 21.0621 7.34098 21.2178C7.63964 21.9356 7.9686 22.6407 8.29324 23.35C8.35852 23.5387 8.47697 23.7059 8.63519 23.8327C8.73523 23.8959 8.85353 23.9264 8.97272 23.9196C9.09192 23.9128 9.20572 23.8691 9.29744 23.795C9.4446 23.6942 9.26714 23.5263 9.21087 23.4088C8.85161 22.6533 8.47503 21.9104 8.08547 21.1171C8.24562 21.1381 8.35384 21.1465 8.45339 21.1675C10.3145 21.5122 12.1999 21.7199 14.0933 21.7887V21.7845ZM15.9113 14.7498C15.6343 14.8422 15.591 15.0478 15.578 15.2745C15.578 15.3459 15.6343 15.4088 15.6862 15.3836C15.8853 15.2829 15.868 15.0646 15.9416 14.8925C15.9676 14.8632 15.9373 14.8128 15.9113 14.7498ZM15.275 13.0709C15.1235 12.71 14.9071 12.349 14.4353 12.4917C14.3423 12.5252 14.2409 12.5294 14.1453 12.5038C14.0497 12.4782 13.9649 12.424 13.9029 12.349C13.7557 12.1895 13.6129 12.2189 13.4441 12.2273C13.2734 12.2494 13.109 12.3042 12.9604 12.3885C12.8118 12.4728 12.6819 12.5849 12.5784 12.7184C12.4788 12.8209 12.4126 12.9497 12.388 13.0885C12.3634 13.2273 12.3814 13.3701 12.4399 13.4991C12.4821 13.6308 12.5746 13.742 12.6985 13.8099C12.8224 13.8777 12.9683 13.8972 13.1065 13.8642C13.2309 13.845 13.3583 13.8558 13.4774 13.8957C13.5965 13.9357 13.7036 14.0035 13.7892 14.0931C13.8748 14.1828 13.9363 14.2915 13.9682 14.4098C14.0001 14.528 14.0015 14.652 13.9721 14.7708C13.9414 15.1161 14.0215 15.4621 14.2016 15.7614C14.2448 15.8453 14.2838 15.9125 14.4093 15.9041C14.7902 15.8789 15.5217 15.0646 15.4178 14.6953C15.3733 14.5739 15.3746 14.4411 15.4213 14.3205C15.468 14.1999 15.5573 14.0992 15.6732 14.0363C15.8515 13.8927 15.9848 13.7037 16.0585 13.4907C15.5953 13.6124 15.4222 13.3857 15.288 13.0667L15.275 13.0709ZM15.2274 16.4875H13.1541C12.9983 16.4875 12.8641 16.4875 12.8727 16.7016C12.8814 16.9156 13.0026 16.9282 13.1627 16.9282H15.2361C15.4049 16.9282 15.4914 16.8527 15.4871 16.6764C15.4828 16.5001 15.3702 16.4833 15.2404 16.4833L15.2274 16.4875ZM15.1798 17.0919H13.2017C13.1702 17.0886 13.1383 17.0922 13.1083 17.1024C13.0784 17.1126 13.0513 17.1292 13.0288 17.151C13.0064 17.1727 12.9893 17.199 12.9788 17.2281C12.9682 17.2571 12.9645 17.288 12.968 17.3186C12.968 17.4823 13.0632 17.5284 13.2104 17.5242H15.1452C15.2837 17.5242 15.3919 17.5242 15.3919 17.3312C15.3919 17.1381 15.3486 17.0877 15.1928 17.0877L15.1798 17.0919ZM7.77382 9.80126L10.0766 7.56831C9.46584 7.56831 8.88013 7.80356 8.44828 8.22232C8.01643 8.64108 7.77382 9.20904 7.77382 9.80126ZM7.77382 9.80126L10.0766 7.56831C9.46584 7.56831 8.88013 7.80356 8.44828 8.22232C8.01643 8.64108 7.77382 9.20904 7.77382 9.80126ZM15.1928 17.0877H13.2147C13.1831 17.0844 13.1512 17.088 13.1213 17.0982C13.0914 17.1084 13.0643 17.125 13.0418 17.1468C13.0194 17.1685 13.0023 17.1949 12.9918 17.2239C12.9812 17.2529 12.9775 17.2838 12.9809 17.3144C12.9809 17.4781 13.0762 17.5242 13.2233 17.52H15.1582C15.2967 17.52 15.4049 17.52 15.4049 17.327C15.4049 17.1339 15.3486 17.0877 15.1928 17.0877ZM15.2404 16.4833H13.1671C13.0112 16.4833 12.8771 16.4833 12.8857 16.6974C12.8944 16.9114 13.0156 16.924 13.1757 16.924H15.249C15.4179 16.924 15.5044 16.8485 15.5001 16.6722C15.4958 16.4959 15.3702 16.4833 15.2404 16.4833ZM15.288 13.0667C15.1365 12.7058 14.9201 12.3448 14.4483 12.4875C14.3553 12.521 14.2539 12.5252 14.1583 12.4996C14.0627 12.474 13.9779 12.4198 13.9159 12.3448C13.7687 12.1853 13.6259 12.2147 13.4571 12.2231C13.2864 12.2452 13.122 12.3 12.9734 12.3843C12.8247 12.4686 12.6949 12.5807 12.5914 12.7142C12.4918 12.8168 12.4256 12.9455 12.401 13.0843C12.3764 13.2231 12.3944 13.3659 12.4529 13.4949C12.4951 13.6266 12.5876 13.7378 12.7115 13.8057C12.8353 13.8735 12.9813 13.893 13.1194 13.86C13.2439 13.8408 13.3713 13.8516 13.4904 13.8915C13.6095 13.9315 13.7166 13.9993 13.8022 14.0889C13.8878 14.1786 13.9493 14.2873 13.9812 14.4056C14.0131 14.5238 14.0145 14.6478 13.9851 14.7666C13.9544 15.1119 14.0345 15.4579 14.2145 15.7572C14.2578 15.8411 14.2968 15.9083 14.4223 15.8999C14.8032 15.8747 15.5347 15.0604 15.4308 14.6911C15.3863 14.5697 15.3875 14.4369 15.4343 14.3163C15.481 14.1957 15.5703 14.095 15.6862 14.0321C15.8644 13.8885 15.9978 13.6995 16.0714 13.4865C15.5953 13.6124 15.4222 13.3857 15.288 13.0667ZM15.9243 14.7456C15.6473 14.838 15.604 15.0436 15.591 15.2703C15.591 15.3417 15.6473 15.4046 15.6992 15.3794C15.8983 15.2787 15.881 15.0604 15.9546 14.8883C15.9676 14.8632 15.9373 14.8128 15.9113 14.7498L15.9243 14.7456ZM14.0933 21.7845C14.8941 21.8306 15.5131 21.4949 16.1797 20.945H13.5177C13.9469 20.6608 14.2726 20.2525 14.4483 19.7782C14.4677 19.7074 14.5087 19.644 14.5658 19.5961C14.6229 19.5482 14.6936 19.518 14.7686 19.5095C15.249 19.413 15.4438 19.0604 15.3702 18.5358C15.3611 18.441 15.3325 18.3488 15.2863 18.2648C15.24 18.1808 15.177 18.1066 15.1008 18.0464C15.0247 17.9862 14.937 17.9414 14.8428 17.9144C14.7486 17.8875 14.6498 17.879 14.5522 17.8894C14.2708 17.8894 13.9851 17.8894 13.6865 17.8894C13.505 17.8651 13.3208 17.9101 13.173 18.0151C13.0252 18.1201 12.9252 18.2767 12.8944 18.4518C12.8519 18.5518 12.8313 18.6591 12.8336 18.7672C12.8359 18.8752 12.8613 18.9816 12.908 19.0798C12.9547 19.1779 13.0219 19.2656 13.1052 19.3374C13.1885 19.4092 13.2862 19.4635 13.3921 19.497C13.6432 19.5725 13.5956 19.6397 13.5004 19.795C13.3397 20.0588 13.0854 20.2568 12.785 20.3518C12.4846 20.4469 12.1587 20.4324 11.8685 20.3112C10.7577 19.9104 9.73107 19.3173 8.83862 18.561L7.73487 17.6376C7.69484 17.9899 7.75857 18.3461 7.91867 18.6647C8.07878 18.9834 8.3287 19.2516 8.63951 19.4382C9.17191 19.8076 9.71729 20.1643 10.2627 20.5253C10.3406 20.6806 10.2324 20.647 10.1458 20.6344C7.97262 20.3135 5.88315 19.5911 3.99077 18.5064C3.80032 19.3207 3.79599 19.3459 4.53183 19.6523C5.26766 19.9587 5.93424 20.2567 6.6441 20.5379C6.8043 20.5952 6.94966 20.6857 7.07002 20.8032C7.19039 20.9206 7.28286 21.0621 7.34098 21.2178C7.63964 21.9356 7.9686 22.6407 8.29324 23.35C8.35852 23.5387 8.47697 23.7059 8.63519 23.8327C8.73523 23.8959 8.85353 23.9264 8.97272 23.9196C9.09192 23.9128 9.20572 23.8691 9.29744 23.795C9.4446 23.6942 9.26714 23.5263 9.21087 23.4088C8.85161 22.6533 8.47503 21.9104 8.08547 21.1171C8.24562 21.1381 8.35384 21.1465 8.45339 21.1675C10.3145 21.5122 12.1999 21.7199 14.0933 21.7887V21.7845ZM16.7207 10.9765C16.3936 10.5033 15.9272 10.1365 15.3822 9.92391C14.8372 9.71131 14.2387 9.66272 13.6648 9.78447C13.0694 9.87273 12.5145 10.1311 12.0712 10.5266C11.6279 10.9221 11.3162 11.4367 11.176 12.0048C10.9687 12.7055 11.0462 13.4565 11.3924 14.1035C11.479 14.2839 11.5785 14.5232 11.8252 14.4015C12.072 14.2797 11.9638 14.0783 11.8772 13.8978C11.8374 13.8159 11.8027 13.7319 11.7733 13.646C11.6262 13.2761 11.5711 12.8778 11.6127 12.4834C11.6543 12.089 11.7913 11.7097 12.0126 11.3763C12.2339 11.043 12.5332 10.765 12.8862 10.565C13.2392 10.3651 13.6359 10.2487 14.0441 10.2255C14.4522 10.2022 14.8602 10.2728 15.2349 10.4313C15.6097 10.5898 15.9405 10.8319 16.2005 11.1379C16.4605 11.4438 16.6423 11.805 16.7312 12.1919C16.8201 12.5789 16.8136 12.9807 16.7121 13.3647C16.6227 13.6889 16.4763 13.9956 16.2792 14.2713C16.2552 14.2969 16.2367 14.3269 16.2249 14.3596C16.2131 14.3923 16.2083 14.4269 16.2108 14.4614C16.2132 14.4959 16.2228 14.5296 16.239 14.5604C16.2553 14.5913 16.2778 14.6186 16.3052 14.6407C16.336 14.6653 16.3721 14.683 16.4107 14.6925C16.4494 14.7021 16.4898 14.7034 16.529 14.6962C16.5682 14.6889 16.6053 14.6735 16.6377 14.6508C16.6701 14.6282 16.6969 14.599 16.7164 14.5652C16.8033 14.4573 16.8801 14.3421 16.9458 14.221C17.2409 13.7192 17.3769 13.1443 17.3369 12.5679C17.2969 11.9916 17.0825 11.4395 16.7207 10.9807V10.9765ZM16.7207 10.9765C16.3936 10.5033 15.9272 10.1365 15.3822 9.92391C14.8372 9.71131 14.2387 9.66272 13.6648 9.78447C13.0694 9.87273 12.5145 10.1311 12.0712 10.5266C11.6279 10.9221 11.3162 11.4367 11.176 12.0048C10.9687 12.7055 11.0462 13.4565 11.3924 14.1035C11.479 14.2839 11.5785 14.5232 11.8252 14.4015C12.072 14.2797 11.9638 14.0783 11.8772 13.8978C11.8374 13.8159 11.8027 13.7319 11.7733 13.646C11.6262 13.2761 11.5711 12.8778 11.6127 12.4834C11.6543 12.089 11.7913 11.7097 12.0126 11.3763C12.2339 11.043 12.5332 10.765 12.8862 10.565C13.2392 10.3651 13.6359 10.2487 14.0441 10.2255C14.4522 10.2022 14.8602 10.2728 15.2349 10.4313C15.6097 10.5898 15.9405 10.8319 16.2005 11.1379C16.4605 11.4438 16.6423 11.805 16.7312 12.1919C16.8201 12.5789 16.8136 12.9807 16.7121 13.3647C16.6227 13.6889 16.4763 13.9956 16.2792 14.2713C16.2552 14.2969 16.2367 14.3269 16.2249 14.3596C16.2131 14.3923 16.2083 14.4269 16.2108 14.4614C16.2132 14.4959 16.2228 14.5296 16.239 14.5604C16.2553 14.5913 16.2778 14.6186 16.3052 14.6407C16.336 14.6653 16.3721 14.683 16.4107 14.6925C16.4494 14.7021 16.4898 14.7034 16.529 14.6962C16.5682 14.6889 16.6053 14.6735 16.6377 14.6508C16.6701 14.6282 16.6969 14.599 16.7164 14.5652C16.8033 14.4573 16.8801 14.3421 16.9458 14.221C17.2409 13.7192 17.3769 13.1443 17.3369 12.5679C17.2969 11.9916 17.0825 11.4395 16.7207 10.9807V10.9765ZM14.4483 19.7698C14.4677 19.699 14.5087 19.6356 14.5658 19.5877C14.6229 19.5398 14.6936 19.5096 14.7686 19.5012C15.249 19.4046 15.4438 19.052 15.3702 18.5274C15.3611 18.4326 15.3325 18.3405 15.2863 18.2564C15.24 18.1724 15.177 18.0982 15.1008 18.038C15.0247 17.9778 14.937 17.933 14.8428 17.906C14.7486 17.8791 14.6498 17.8706 14.5522 17.881C14.2708 17.881 13.9851 17.881 13.6865 17.881C13.505 17.8567 13.3208 17.9018 13.173 18.0067C13.0252 18.1117 12.9252 18.2683 12.8944 18.4434C12.8519 18.5434 12.8313 18.6507 12.8336 18.7588C12.8359 18.8668 12.8613 18.9732 12.908 19.0714C12.9547 19.1695 13.0219 19.2572 13.1052 19.329C13.1885 19.4008 13.2862 19.4551 13.3921 19.4886C13.6432 19.5641 13.5956 19.6313 13.5004 19.7866C13.3397 20.0504 13.0854 20.2484 12.785 20.3434C12.4846 20.4385 12.1587 20.424 11.8685 20.3028C10.7577 19.902 9.73107 19.3089 8.83862 18.5526L7.73487 17.6292C7.69484 17.9815 7.75857 18.3377 7.91867 18.6563C8.07878 18.975 8.3287 19.2432 8.63951 19.4298C9.17191 19.7992 9.71729 20.1559 10.2627 20.5169C10.3406 20.6722 10.2324 20.6386 10.1458 20.626C7.97262 20.3051 5.88315 19.5827 3.99077 18.498C3.80032 19.3123 3.79599 19.3375 4.53183 19.6439C5.26766 19.9503 5.93424 20.2483 6.6441 20.5295C6.8043 20.5868 6.94966 20.6774 7.07002 20.7948C7.19039 20.9122 7.28286 21.0538 7.34098 21.2094C7.63964 21.9272 7.9686 22.6323 8.29324 23.3417C8.35852 23.5303 8.47697 23.6976 8.63519 23.8243C8.73523 23.8875 8.85353 23.918 8.97272 23.9112C9.09192 23.9044 9.20572 23.8607 9.29744 23.7866C9.4446 23.6858 9.26714 23.5179 9.21087 23.4004C8.85161 22.6449 8.47503 21.902 8.08547 21.1087C8.24562 21.1297 8.35384 21.1381 8.45339 21.1591C10.3101 21.5046 12.1911 21.7137 14.0804 21.7845C14.8811 21.8306 15.5001 21.4949 16.1667 20.945H13.5047C13.9394 20.6617 14.2699 20.2516 14.4483 19.774V19.7698ZM15.591 15.2703C15.591 15.3417 15.6473 15.4046 15.6992 15.3794C15.8983 15.2787 15.881 15.0604 15.9546 14.8883C15.9546 14.859 15.9546 14.8086 15.9243 14.7456C15.6473 14.8422 15.604 15.0478 15.591 15.2745V15.2703ZM15.288 13.0625C15.1365 12.7016 14.9201 12.3406 14.4483 12.4833C14.3553 12.5168 14.2539 12.521 14.1583 12.4954C14.0627 12.4698 13.9779 12.4156 13.9159 12.3406C13.7687 12.1811 13.6259 12.2105 13.4571 12.2189C13.2864 12.241 13.122 12.2958 12.9734 12.3801C12.8247 12.4644 12.6949 12.5765 12.5914 12.71C12.4918 12.8126 12.4256 12.9413 12.401 13.0801C12.3764 13.2189 12.3944 13.3617 12.4529 13.4907C12.4951 13.6224 12.5876 13.7336 12.7115 13.8015C12.8353 13.8693 12.9813 13.8888 13.1194 13.8558C13.2439 13.8366 13.3713 13.8474 13.4904 13.8873C13.6095 13.9273 13.7166 13.9951 13.8022 14.0847C13.8878 14.1744 13.9493 14.2831 13.9812 14.4014C14.0131 14.5196 14.0145 14.6436 13.9851 14.7624C13.9544 15.1077 14.0345 15.4537 14.2145 15.753C14.2578 15.8369 14.2968 15.9041 14.4223 15.8957C14.8032 15.8705 15.5347 15.0562 15.4308 14.6869C15.3863 14.5655 15.3875 14.4327 15.4343 14.3121C15.481 14.1915 15.5703 14.0908 15.6862 14.0279C15.8644 13.8843 15.9978 13.6953 16.0714 13.4823C15.5953 13.6124 15.4222 13.3857 15.288 13.0667V13.0625ZM15.5001 16.6638C15.5001 16.4833 15.3702 16.4791 15.2404 16.4791H13.1671C13.0112 16.4791 12.8771 16.4791 12.8857 16.6932C12.8944 16.9072 13.0156 16.9198 13.1757 16.9198H15.249C15.4179 16.9198 15.5044 16.8443 15.5001 16.668V16.6638ZM13.2147 17.0835C13.1831 17.0802 13.1512 17.0838 13.1213 17.094C13.0914 17.1042 13.0643 17.1208 13.0418 17.1426C13.0194 17.1643 13.0023 17.1907 12.9918 17.2197C12.9812 17.2487 12.9775 17.2796 12.9809 17.3102C12.9809 17.4739 13.0762 17.52 13.2233 17.5158H15.1582C15.2967 17.5158 15.4049 17.5158 15.4049 17.3228C15.4049 17.1297 15.3486 17.0835 15.1928 17.0835H13.2147ZM10.0766 7.56411C9.46584 7.56411 8.88013 7.79937 8.44828 8.21813C8.01643 8.63689 7.77382 9.20485 7.77382 9.79706L10.0766 7.56411ZM26.2996 9.61658C26.1447 9.51406 26.0223 9.37189 25.9459 9.20589C25.8695 9.0399 25.8421 8.8566 25.8667 8.67639C25.8797 8.49473 25.8797 8.31241 25.8667 8.13074C25.9253 7.29738 25.7769 6.46254 25.4339 5.69632C24.473 3.59769 22.7372 2.68688 20.4388 2.71206C20.0137 2.732 19.5893 2.65941 19.1969 2.49963C18.8044 2.33985 18.4538 2.09693 18.1707 1.78867C15.9026 -0.490453 12.8381 -0.582795 10.4834 1.62917C10.1351 1.98413 9.7109 2.26088 9.24056 2.43997C8.77023 2.61907 8.26517 2.69618 7.76084 2.66589C6.60552 2.64129 5.47914 3.01769 4.58473 3.72723C3.69031 4.43678 3.0867 5.43281 2.88268 6.53578C2.76164 7.22882 2.71234 7.93186 2.73552 8.63442C2.74934 8.82334 2.71281 9.01254 2.62942 9.18381C2.54604 9.35508 2.41861 9.50267 2.25939 9.61238C1.7053 10.041 1.23349 10.5611 0.865635 11.1486C0.256719 12.0389 -0.0401153 13.0958 0.0191395 14.1626C0.0783942 15.2293 0.490581 16.2492 1.19459 17.0709C1.50191 17.4361 1.86117 17.7551 2.20312 18.0909C2.38917 18.2624 2.53024 18.4745 2.61457 18.7096C2.6989 18.9447 2.72405 19.196 2.68791 19.4424C2.43686 21.8852 3.80031 24.2147 6.45365 24.8988C7.22008 25.0664 8.00612 25.1341 8.79101 25.1003C9.00058 25.0889 9.20995 25.126 9.40185 25.2084C9.59375 25.2909 9.7627 25.4164 9.89476 25.5746C10.886 26.6533 12.059 27.4844 13.5869 27.6732C15.5217 27.9041 17.106 27.1822 18.3785 25.8348C18.6013 25.576 18.8866 25.3747 19.2091 25.2487C19.5316 25.1228 19.8812 25.0761 20.2268 25.1129C21.0598 25.1887 21.8992 25.0649 22.6713 24.7524C23.4434 24.4399 24.1245 23.9482 24.6548 23.3207C25.1123 22.7757 25.4545 22.1485 25.6617 21.4751C25.8689 20.8017 25.9371 20.0952 25.8624 19.3962C25.8305 19.1229 25.8715 18.8463 25.9814 18.5928C26.0913 18.3393 26.2664 18.1173 26.49 17.9482C27.0528 17.5057 27.52 16.9598 27.8647 16.3418C28.2093 15.7238 28.4247 15.0458 28.4984 14.3469C28.6542 12.3742 27.7799 10.8506 26.2996 9.61658ZM20.1705 3.36264C22.3693 3.28709 24.6201 4.43295 25.027 7.14019C25.343 9.21784 24.737 11.115 23.8497 12.9534C23.4688 13.7341 23.0229 14.4854 22.6031 15.2493C22.5684 15.3081 22.5555 15.4004 22.4213 15.3794V12.328L23.0576 13.264C23.564 12.8065 23.6073 12.5547 23.1961 12.0762C22.4696 11.1917 22.0191 10.1242 21.8975 8.99958C21.8499 8.6554 21.7677 8.31962 21.6811 7.88311L24.4946 9.17167C24.7283 8.52109 24.6764 8.38258 24.0617 8.11815C23.3173 7.79077 22.5728 7.47597 21.8196 7.17796C21.6798 7.13013 21.552 7.05417 21.4446 6.95507C21.3371 6.85597 21.2526 6.73597 21.1963 6.60294C20.7635 5.65016 20.3609 4.70577 19.8978 3.76558C19.7636 3.45918 19.8372 3.37523 20.1618 3.36264H20.1705ZM17.0324 25.9356C16.2603 26.5668 15.2829 26.913 14.273 26.913C13.2631 26.913 12.2857 26.5668 11.5136 25.9356C11.1449 25.6694 10.8054 25.367 10.5007 25.0332C11.6954 24.5799 12.8554 24.1559 13.9981 23.7026C14.1008 23.6673 14.2099 23.6528 14.3186 23.6601C14.4273 23.6673 14.5333 23.6961 14.6301 23.7446C15.4352 24.0426 16.2359 24.3532 17.041 24.6512C17.1985 24.7179 17.3672 24.7563 17.5388 24.7645C17.8461 24.7645 17.9716 24.5001 18.0279 24.2818C18.0842 24.0636 17.8201 24.114 17.6903 24.0678C16.8722 23.774 16.0455 23.4928 15.1495 23.178C15.9203 22.5986 16.7333 22.074 17.5821 21.6082C18.1004 21.4339 18.6405 21.3281 19.1879 21.2934C19.8502 21.1633 19.9757 21.0541 20.0839 20.3784C19.7809 20.2818 19.5126 20.5085 19.1533 20.4497C19.7982 19.5557 20.9453 18.9471 20.7548 17.7341L19.0234 19.3039C16.6558 21.4823 14.0024 23.1906 10.821 24.0426C9.68991 24.3738 8.49803 24.4626 7.32799 24.3028C6.22508 24.1712 5.21313 23.6434 4.49192 22.8236C3.77071 22.0038 3.39266 20.9516 3.4324 19.8747C3.50093 17.177 4.43776 14.5677 6.1117 12.412V15.2997L5.48408 14.3973C5.02094 14.8506 4.97333 15.2367 5.37587 15.6564C6.08195 16.4813 6.51491 17.4936 6.61813 18.561C6.71769 19.2913 6.76962 19.3459 7.57039 19.476C7.54415 19.059 7.46864 18.6464 7.34531 18.2462C6.72154 15.0983 6.77014 11.8599 7.48815 8.73095C7.52277 8.57146 7.69158 8.31123 7.48815 8.26086C7.35981 8.21528 7.21875 8.21655 7.09131 8.26443C6.96387 8.31232 6.85875 8.40355 6.7956 8.52109C6.64098 8.82046 6.55252 9.14784 6.53589 9.48227C6.4898 10.1235 6.26379 10.7404 5.8823 11.2661C5.46158 11.8173 5.07007 12.3888 4.70929 12.9786C4.38898 12.093 4.11196 11.2997 3.80897 10.5148C3.75703 10.3847 3.80897 10.0951 3.53195 10.1664C3.25493 10.2378 3.02119 10.3847 3.09911 10.7163C3.15493 10.969 3.23016 11.2173 3.32419 11.4592C3.57524 12.0972 3.83062 12.7338 4.09032 13.3689C4.19676 13.5574 4.22464 13.7782 4.16823 13.9859C3.70076 15.1402 3.23329 16.2986 2.75716 17.4613C0.536671 15.7026 0.160097 13.1675 1.81789 11.1318C3.11642 9.52843 4.9084 8.57985 6.85187 7.90409C9.66026 6.9501 12.6398 6.56163 15.6083 6.76243C15.7425 6.76243 15.8767 6.76243 16.1407 6.76243C15.6083 6.3427 15.2144 5.92298 14.5781 5.94396C13.9419 5.96495 13.4224 5.94396 12.7126 5.94396L13.6648 5.29759C13.0545 4.79391 12.9247 4.78972 12.323 5.25142C11.482 5.89702 10.4744 6.30643 9.40997 6.43504C8.97713 6.48541 8.58324 6.58195 8.0898 6.67429C8.4707 5.8936 8.83429 5.15487 9.18057 4.40776C9.25415 4.24407 9.53983 4.0384 9.26281 3.87471C9.19714 3.82997 9.12183 3.80032 9.04258 3.78804C8.96333 3.77575 8.88223 3.78114 8.80546 3.8038C8.72868 3.82646 8.65823 3.86579 8.59947 3.91881C8.54072 3.97182 8.4952 4.03713 8.46638 4.10976C8.14999 4.70281 7.87101 5.31394 7.63098 5.93977C7.52674 6.28777 7.33427 6.60491 7.07116 6.86225C6.80804 7.11959 6.48266 7.30894 6.12469 7.41301C5.35855 7.67324 4.62272 8.01742 3.88256 8.349C3.57957 8.48332 3.5233 8.40357 3.49733 8.10976C3.26359 5.17167 5.68319 3.02686 8.85161 3.34166C12.639 3.71941 15.7035 5.48646 18.4131 7.93347C19.1836 8.62602 19.8415 9.4361 20.625 10.1244C20.9063 8.63861 19.6727 8.05939 18.8936 7.16118L20.032 7.37523C20.0623 6.72466 19.9844 6.60294 19.3437 6.46443C18.7031 6.32592 17.937 6.29653 17.3051 5.94396C16.5735 5.52424 15.9502 4.966 15.0932 4.55467C16.0022 4.23987 16.8246 3.96705 17.621 3.66485C17.7639 3.61028 18.1145 3.68583 18.0106 3.35844C17.9995 3.28552 17.9716 3.21597 17.929 3.15493C17.8864 3.09389 17.8301 3.04294 17.7644 3.00585C17.6987 2.96876 17.6253 2.94648 17.5495 2.94067C17.4737 2.93487 17.3976 2.94567 17.3267 2.97229C16.9475 3.06779 16.5792 3.19997 16.2273 3.36684C15.6401 3.72955 14.9584 3.92223 14.2622 3.92223C13.566 3.92223 12.8842 3.72955 12.297 3.36684C11.8327 3.14719 11.3507 2.9647 10.8557 2.82119C10.6349 2.74144 10.5007 2.69948 10.7388 2.43924C12.5351 0.462329 15.1971 0.260856 17.2791 1.95655C18.7551 3.16117 19.6424 4.73515 20.309 6.45184C21.4856 9.6109 21.8858 12.9926 21.4777 16.328C21.2723 18.5906 20.6276 20.7951 19.5775 22.8254C18.9799 24.0362 18.1067 25.0996 17.0237 25.9356H17.0324ZM20.3523 24.3616C19.5342 24.3616 19.6467 24.391 19.9194 23.7782C20.3263 22.9093 20.7462 22.0447 21.1617 21.1801C21.2612 20.9222 21.4597 20.7116 21.7157 20.5924C22.7113 20.1727 23.7068 19.711 24.6894 19.2409C25.1222 19.0437 25.0746 19.2955 25.0833 19.5473C25.1915 22.3805 23.2696 24.328 20.3436 24.3616H20.3523ZM26.2 17.1465C25.0183 18.3007 23.0056 19.4634 21.7936 19.6984C21.7937 18.7845 21.9803 17.8797 22.3429 17.0361C22.7054 16.1925 23.2366 15.4269 23.9059 14.7834C24.1873 15.5599 24.4686 16.3616 24.7716 17.1507C24.8236 17.2808 24.7716 17.5704 25.0573 17.4907C25.343 17.4109 25.5637 17.2682 25.4901 16.9324C25.4508 16.7542 25.3987 16.5789 25.3343 16.4078C25.0457 15.7026 24.7572 15.0031 24.4686 14.3091C24.3544 14.1252 24.3201 13.9048 24.3734 13.6963C24.8279 12.5505 25.2954 11.4088 25.7758 10.2336C28.2127 12.1601 28.3642 15.0269 26.1913 17.1465H26.2ZM13.6735 9.78866C13.078 9.87692 12.5232 10.1353 12.0799 10.5308C11.6366 10.9263 11.3249 11.4409 11.1846 12.009C10.9774 12.7097 11.0548 13.4607 11.4011 14.1077C11.4876 14.2881 11.5872 14.5274 11.8339 14.4057C12.0806 14.2839 11.9724 14.0825 11.8858 13.902C11.846 13.8201 11.8113 13.736 11.782 13.6502C11.6348 13.2803 11.5798 12.8819 11.6214 12.4876C11.6629 12.0932 11.8 11.7139 12.0213 11.3805C12.2426 11.0472 12.5419 10.7692 12.8949 10.5692C13.2479 10.3693 13.6446 10.2529 14.0527 10.2297C14.4609 10.2064 14.8689 10.277 15.2436 10.4355C15.6183 10.594 15.9491 10.8361 16.2091 11.1421C16.4691 11.448 16.651 11.8092 16.7399 12.1961C16.8288 12.5831 16.8222 12.9849 16.7207 13.3689C16.6313 13.6931 16.4849 13.9998 16.2879 14.2755C16.2638 14.3011 16.2453 14.3311 16.2336 14.3638C16.2218 14.3965 16.217 14.4311 16.2194 14.4656C16.2218 14.5001 16.2315 14.5338 16.2477 14.5646C16.2639 14.5955 16.2864 14.6228 16.3138 14.6449C16.3447 14.6695 16.3807 14.6872 16.4194 14.6967C16.4581 14.7063 16.4984 14.7076 16.5377 14.7004C16.5769 14.6931 16.614 14.6777 16.6464 14.655C16.6787 14.6324 16.7056 14.6032 16.725 14.5694C16.812 14.4615 16.8887 14.3463 16.9545 14.2252C17.245 13.7237 17.3773 13.1505 17.3349 12.5767C17.2926 12.0029 17.0775 11.4538 16.7164 10.9975C16.3919 10.522 15.9272 10.1524 15.3829 9.93673C14.8385 9.72111 14.2398 9.66951 13.6648 9.78866H13.6735ZM14.4569 19.774C14.4764 19.7032 14.5173 19.6398 14.5745 19.5919C14.6316 19.544 14.7022 19.5138 14.7772 19.5053C15.2577 19.4088 15.4525 19.0562 15.3789 18.5316C15.3697 18.4368 15.3412 18.3447 15.2949 18.2606C15.2487 18.1766 15.1857 18.1024 15.1095 18.0422C15.0334 17.982 14.9456 17.9372 14.8514 17.9102C14.7572 17.8833 14.6584 17.8748 14.5608 17.8852C14.2795 17.8852 13.9938 17.8852 13.6951 17.8852C13.5136 17.8609 13.3295 17.9059 13.1816 18.0109C13.0338 18.1159 12.9339 18.2725 12.903 18.4476C12.8606 18.5476 12.8399 18.6549 12.8422 18.763C12.8446 18.871 12.8699 18.9774 12.9167 19.0756C12.9634 19.1737 13.0305 19.2614 13.1138 19.3332C13.1971 19.405 13.2948 19.4593 13.4008 19.4928C13.6519 19.5683 13.6042 19.6355 13.509 19.7908C13.3484 20.0546 13.094 20.2526 12.7936 20.3476C12.4932 20.4427 12.1674 20.4282 11.8772 20.307C10.7663 19.9062 9.73972 19.3131 8.84728 18.5568L7.74353 17.6334C7.7035 17.9857 7.76722 18.3419 7.92732 18.6605C8.08743 18.9792 8.33736 19.2474 8.64817 19.434C9.18057 19.8034 9.72595 20.1601 10.2713 20.5211C10.3492 20.6764 10.241 20.6428 10.1545 20.6302C7.98128 20.3093 5.89181 19.5869 3.99942 18.5022C3.80897 19.3165 3.80464 19.3417 4.54048 19.6481C5.27631 19.9545 5.94289 20.2525 6.65276 20.5337C6.81295 20.591 6.95831 20.6815 7.07867 20.799C7.19904 20.9164 7.29152 21.0579 7.34964 21.2136C7.6483 21.9314 7.97726 22.6365 8.30189 23.3459C8.36718 23.5345 8.48563 23.7017 8.64384 23.8285C8.74389 23.8917 8.86219 23.9222 8.98138 23.9154C9.10057 23.9086 9.21438 23.8649 9.3061 23.7908C9.45326 23.69 9.27579 23.5221 9.21952 23.4046C8.86026 22.6491 8.48369 21.9062 8.09413 21.1129C8.25428 21.1339 8.36249 21.1423 8.46204 21.1633C10.3188 21.5088 12.1998 21.7178 14.089 21.7887C14.8898 21.8348 15.5087 21.4991 16.1753 20.9492H13.5133C13.9456 20.6635 14.273 20.2519 14.4483 19.774H14.4569ZM15.5996 15.2745C15.5996 15.3459 15.6559 15.4088 15.7079 15.3836C15.907 15.2829 15.8897 15.0646 15.9632 14.8925C15.9632 14.8632 15.9632 14.8128 15.9329 14.7498C15.6473 14.8422 15.604 15.0478 15.591 15.2745H15.5996ZM15.2967 13.0667C15.1452 12.7058 14.9287 12.3448 14.4569 12.4875C14.364 12.521 14.2625 12.5252 14.1669 12.4996C14.0714 12.474 13.9866 12.4198 13.9245 12.3448C13.7774 12.1853 13.6345 12.2147 13.4657 12.2231C13.2951 12.2452 13.1306 12.3 12.982 12.3843C12.8334 12.4686 12.7036 12.5807 12.6 12.7142C12.5005 12.8168 12.4343 12.9455 12.4097 13.0843C12.385 13.2231 12.4031 13.3659 12.4615 13.4949C12.5037 13.6266 12.5962 13.7378 12.7201 13.8057C12.844 13.8735 12.9899 13.893 13.1281 13.86C13.2526 13.8408 13.38 13.8516 13.4991 13.8915C13.6182 13.9315 13.7253 13.9993 13.8109 14.0889C13.8965 14.1786 13.958 14.2873 13.9899 14.4056C14.0218 14.5238 14.0231 14.6478 13.9938 14.7666C13.963 15.1119 14.0432 15.4579 14.2232 15.7572C14.2665 15.8411 14.3054 15.9083 14.431 15.8999C14.8119 15.8747 15.5434 15.0604 15.4395 14.6911C15.395 14.5697 15.3962 14.4369 15.4429 14.3163C15.4897 14.1957 15.5789 14.095 15.6949 14.0321C15.8731 13.8885 16.0065 13.6995 16.0801 13.4865C15.5953 13.6124 15.4222 13.3857 15.288 13.0667H15.2967ZM15.5088 16.668C15.5088 16.4875 15.3789 16.4833 15.249 16.4833H13.1757C13.0199 16.4833 12.8857 16.4833 12.8944 16.6974C12.903 16.9114 13.0242 16.924 13.1844 16.924H15.2577C15.4178 16.9198 15.5044 16.8443 15.5001 16.668H15.5088ZM13.2233 17.0877C13.1918 17.0844 13.1599 17.088 13.13 17.0982C13.1001 17.1084 13.0729 17.125 13.0505 17.1468C13.0281 17.1685 13.0109 17.1949 13.0004 17.2239C12.9899 17.2529 12.9862 17.2838 12.9896 17.3144C12.9896 17.4781 13.0848 17.5242 13.232 17.52H15.1668C15.3053 17.52 15.4135 17.52 15.4135 17.327C15.4135 17.1339 15.3572 17.0877 15.2014 17.0877H13.2233ZM10.0852 7.56831C9.47449 7.56831 8.88879 7.80356 8.45694 8.22232C8.02509 8.64108 7.78248 9.20904 7.78248 9.80126L10.0852 7.56831ZM7.78248 9.80126L10.0852 7.56831C9.78208 7.56721 9.48172 7.62415 9.20134 7.73587C8.92096 7.84759 8.66608 8.01189 8.45134 8.21935C8.23659 8.42681 8.0662 8.67334 7.94994 8.9448C7.83367 9.21626 7.77382 9.50731 7.77382 9.80126H7.78248ZM15.2014 17.0877H13.2233C13.1918 17.0844 13.1599 17.088 13.13 17.0982C13.1001 17.1084 13.0729 17.125 13.0505 17.1468C13.0281 17.1685 13.0109 17.1949 13.0004 17.2239C12.9899 17.2529 12.9862 17.2838 12.9896 17.3144C12.9896 17.4781 13.0848 17.5242 13.232 17.52H15.1668C15.3053 17.52 15.4135 17.52 15.4135 17.327C15.4135 17.1339 15.3486 17.0877 15.1928 17.0877H15.2014ZM15.249 16.4833H13.1757C13.0199 16.4833 12.8857 16.4833 12.8944 16.6974C12.903 16.9114 13.0242 16.924 13.1844 16.924H15.2577C15.4265 16.924 15.5131 16.8485 15.5088 16.6722C15.5044 16.4959 15.3702 16.4833 15.2404 16.4833H15.249ZM15.2967 13.0667C15.1452 12.7058 14.9287 12.3448 14.4569 12.4875C14.364 12.521 14.2625 12.5252 14.1669 12.4996C14.0714 12.474 13.9866 12.4198 13.9245 12.3448C13.7774 12.1853 13.6345 12.2147 13.4657 12.2231C13.2951 12.2452 13.1306 12.3 12.982 12.3843C12.8334 12.4686 12.7036 12.5807 12.6 12.7142C12.5005 12.8168 12.4343 12.9455 12.4097 13.0843C12.385 13.2231 12.4031 13.3659 12.4615 13.4949C12.5037 13.6266 12.5962 13.7378 12.7201 13.8057C12.844 13.8735 12.9899 13.893 13.1281 13.86C13.2526 13.8408 13.38 13.8516 13.4991 13.8915C13.6182 13.9315 13.7253 13.9993 13.8109 14.0889C13.8965 14.1786 13.958 14.2873 13.9899 14.4056C14.0218 14.5238 14.0231 14.6478 13.9938 14.7666C13.963 15.1119 14.0432 15.4579 14.2232 15.7572C14.2665 15.8411 14.3054 15.9083 14.431 15.8999C14.8119 15.8747 15.5434 15.0604 15.4395 14.6911C15.395 14.5697 15.3962 14.4369 15.4429 14.3163C15.4897 14.1957 15.5789 14.095 15.6949 14.0321C15.8731 13.8885 16.0065 13.6995 16.0801 13.4865C15.5953 13.6124 15.4222 13.3857 15.288 13.0667H15.2967ZM15.9329 14.7456C15.6559 14.838 15.6126 15.0436 15.5996 15.2703C15.5996 15.3417 15.6559 15.4046 15.7079 15.3794C15.907 15.2787 15.8897 15.0604 15.9632 14.8883C15.9676 14.8632 15.9373 14.8128 15.9113 14.7498L15.9329 14.7456ZM14.102 21.7845C14.9028 21.8306 15.5217 21.4949 16.1883 20.945H13.5263C13.9555 20.6608 14.2812 20.2525 14.4569 19.7782C14.4764 19.7074 14.5173 19.644 14.5745 19.5961C14.6316 19.5482 14.7022 19.518 14.7772 19.5095C15.2577 19.413 15.4525 19.0604 15.3789 18.5358C15.3697 18.441 15.3412 18.3488 15.2949 18.2648C15.2487 18.1808 15.1857 18.1066 15.1095 18.0464C15.0334 17.9862 14.9456 17.9414 14.8514 17.9144C14.7572 17.8875 14.6584 17.879 14.5608 17.8894C14.2795 17.8894 13.9938 17.8894 13.6951 17.8894C13.5136 17.8651 13.3295 17.9101 13.1816 18.0151C13.0338 18.1201 12.9339 18.2767 12.903 18.4518C12.8606 18.5518 12.8399 18.6591 12.8422 18.7672C12.8446 18.8752 12.8699 18.9816 12.9167 19.0798C12.9634 19.1779 13.0305 19.2656 13.1138 19.3374C13.1971 19.4092 13.2948 19.4635 13.4008 19.497C13.6519 19.5725 13.6042 19.6397 13.509 19.795C13.3484 20.0588 13.094 20.2568 12.7936 20.3518C12.4932 20.4469 12.1674 20.4324 11.8772 20.3112C10.7663 19.9104 9.73972 19.3173 8.84728 18.561L7.74353 17.6376C7.7035 17.9899 7.76722 18.3461 7.92732 18.6647C8.08743 18.9834 8.33736 19.2516 8.64817 19.4382C9.18057 19.8076 9.72595 20.1643 10.2713 20.5253C10.3492 20.6806 10.241 20.647 10.1545 20.6344C7.98128 20.3135 5.89181 19.5911 3.99942 18.5064C3.80897 19.3207 3.80464 19.3459 4.54048 19.6523C5.27631 19.9587 5.94289 20.2567 6.65276 20.5379C6.81295 20.5952 6.95831 20.6857 7.07867 20.8032C7.19904 20.9206 7.29152 21.0621 7.34964 21.2178C7.6483 21.9356 7.97726 22.6407 8.30189 23.35C8.36718 23.5387 8.48563 23.7059 8.64384 23.8327C8.74389 23.8959 8.86219 23.9264 8.98138 23.9196C9.10057 23.9128 9.21438 23.8691 9.3061 23.795C9.45326 23.6942 9.27579 23.5263 9.21952 23.4088C8.86026 22.6533 8.48369 21.9104 8.09413 21.1171C8.25428 21.1381 8.36249 21.1465 8.46204 21.1675C10.3203 21.5118 12.2028 21.7194 14.0933 21.7887L14.102 21.7845ZM16.7294 10.9765C16.4023 10.5033 15.9359 10.1365 15.3908 9.92391C14.8458 9.71131 14.2474 9.66272 13.6735 9.78447C13.078 9.87273 12.5232 10.1311 12.0799 10.5266C11.6366 10.9221 11.3249 11.4367 11.1846 12.0048C10.9774 12.7055 11.0548 13.4565 11.4011 14.1035C11.4876 14.2839 11.5872 14.5232 11.8339 14.4015C12.0806 14.2797 11.9724 14.0783 11.8858 13.8978C11.846 13.8159 11.8113 13.7319 11.782 13.646C11.6348 13.2761 11.5798 12.8778 11.6214 12.4834C11.6629 12.089 11.8 11.7097 12.0213 11.3763C12.2426 11.043 12.5419 10.765 12.8949 10.565C13.2479 10.3651 13.6446 10.2487 14.0527 10.2255C14.4609 10.2022 14.8689 10.2728 15.2436 10.4313C15.6183 10.5898 15.9491 10.8319 16.2091 11.1379C16.4691 11.4438 16.651 11.805 16.7399 12.1919C16.8288 12.5789 16.8222 12.9807 16.7207 13.3647C16.6313 13.6889 16.4849 13.9956 16.2879 14.2713C16.2638 14.2969 16.2453 14.3269 16.2336 14.3596C16.2218 14.3923 16.217 14.4269 16.2194 14.4614C16.2218 14.4959 16.2315 14.5296 16.2477 14.5604C16.2639 14.5913 16.2864 14.6186 16.3138 14.6407C16.3447 14.6653 16.3807 14.683 16.4194 14.6925C16.4581 14.7021 16.4984 14.7034 16.5377 14.6962C16.5769 14.6889 16.614 14.6735 16.6464 14.6508C16.6787 14.6282 16.7056 14.599 16.725 14.5652C16.812 14.4573 16.8887 14.3421 16.9545 14.221C17.2483 13.7184 17.3829 13.143 17.3413 12.5667C17.2998 11.9903 17.0839 11.4387 16.7207 10.9807L16.7294 10.9765ZM16.7294 10.9765C16.4023 10.5033 15.9359 10.1365 15.3908 9.92391C14.8458 9.71131 14.2474 9.66272 13.6735 9.78447C13.078 9.87273 12.5232 10.1311 12.0799 10.5266C11.6366 10.9221 11.3249 11.4367 11.1846 12.0048C10.9774 12.7055 11.0548 13.4565 11.4011 14.1035C11.4876 14.2839 11.5872 14.5232 11.8339 14.4015C12.0806 14.2797 11.9724 14.0783 11.8858 13.8978C11.846 13.8159 11.8113 13.7319 11.782 13.646C11.6348 13.2761 11.5798 12.8778 11.6214 12.4834C11.6629 12.089 11.8 11.7097 12.0213 11.3763C12.2426 11.043 12.5419 10.765 12.8949 10.565C13.2479 10.3651 13.6446 10.2487 14.0527 10.2255C14.4609 10.2022 14.8689 10.2728 15.2436 10.4313C15.6183 10.5898 15.9491 10.8319 16.2091 11.1379C16.4691 11.4438 16.651 11.805 16.7399 12.1919C16.8288 12.5789 16.8222 12.9807 16.7207 13.3647C16.6313 13.6889 16.4849 13.9956 16.2879 14.2713C16.2638 14.2969 16.2453 14.3269 16.2336 14.3596C16.2218 14.3923 16.217 14.4269 16.2194 14.4614C16.2218 14.4959 16.2315 14.5296 16.2477 14.5604C16.2639 14.5913 16.2864 14.6186 16.3138 14.6407C16.3447 14.6653 16.3807 14.683 16.4194 14.6925C16.4581 14.7021 16.4984 14.7034 16.5377 14.6962C16.5769 14.6889 16.614 14.6735 16.6464 14.6508C16.6787 14.6282 16.7056 14.599 16.725 14.5652C16.812 14.4573 16.8887 14.3421 16.9545 14.221C17.2483 13.7184 17.3829 13.143 17.3413 12.5667C17.2998 11.9903 17.0839 11.4387 16.7207 10.9807L16.7294 10.9765ZM14.102 21.7845C14.9028 21.8306 15.5217 21.4949 16.1883 20.945H13.5263C13.9555 20.6608 14.2812 20.2525 14.4569 19.7782C14.4764 19.7074 14.5173 19.644 14.5745 19.5961C14.6316 19.5482 14.7022 19.518 14.7772 19.5095C15.2577 19.413 15.4525 19.0604 15.3789 18.5358C15.3697 18.441 15.3412 18.3488 15.2949 18.2648C15.2487 18.1808 15.1857 18.1066 15.1095 18.0464C15.0334 17.9862 14.9456 17.9414 14.8514 17.9144C14.7572 17.8875 14.6584 17.879 14.5608 17.8894C14.2795 17.8894 13.9938 17.8894 13.6951 17.8894C13.5136 17.8651 13.3295 17.9101 13.1816 18.0151C13.0338 18.1201 12.9339 18.2767 12.903 18.4518C12.8606 18.5518 12.8399 18.6591 12.8422 18.7672C12.8446 18.8752 12.8699 18.9816 12.9167 19.0798C12.9634 19.1779 13.0305 19.2656 13.1138 19.3374C13.1971 19.4092 13.2948 19.4635 13.4008 19.497C13.6519 19.5725 13.6042 19.6397 13.509 19.795C13.3484 20.0588 13.094 20.2568 12.7936 20.3518C12.4932 20.4469 12.1674 20.4324 11.8772 20.3112C10.7663 19.9104 9.73972 19.3173 8.84728 18.561L7.74353 17.6376C7.7035 17.9899 7.76722 18.3461 7.92732 18.6647C8.08743 18.9834 8.33736 19.2516 8.64817 19.4382C9.18057 19.8076 9.72595 20.1643 10.2713 20.5253C10.3492 20.6806 10.241 20.647 10.1545 20.6344C7.98128 20.3135 5.89181 19.5911 3.99942 18.5064C3.80897 19.3207 3.80464 19.3459 4.54048 19.6523C5.27631 19.9587 5.94289 20.2567 6.65276 20.5379C6.81295 20.5952 6.95831 20.6857 7.07867 20.8032C7.19904 20.9206 7.29152 21.0621 7.34964 21.2178C7.6483 21.9356 7.97726 22.6407 8.30189 23.35C8.36718 23.5387 8.48563 23.7059 8.64384 23.8327C8.74389 23.8959 8.86219 23.9264 8.98138 23.9196C9.10057 23.9128 9.21438 23.8691 9.3061 23.795C9.45326 23.6942 9.27579 23.5263 9.21952 23.4088C8.86026 22.6533 8.48369 21.9104 8.09413 21.1171C8.25428 21.1381 8.36249 21.1465 8.46204 21.1675C10.3203 21.5118 12.2028 21.7194 14.0933 21.7887L14.102 21.7845ZM15.9113 14.7498C15.6343 14.8422 15.591 15.0478 15.578 15.2745C15.578 15.3459 15.6343 15.4088 15.6862 15.3836C15.8853 15.2829 15.868 15.0646 15.9416 14.8925C15.9676 14.8632 15.9373 14.8128 15.9113 14.7498ZM15.275 13.0709C15.1235 12.71 14.9071 12.349 14.4353 12.4917C14.3423 12.5252 14.2409 12.5294 14.1453 12.5038C14.0497 12.4782 13.9649 12.424 13.9029 12.349C13.7557 12.1895 13.6129 12.2189 13.4441 12.2273C13.2734 12.2494 13.109 12.3042 12.9604 12.3885C12.8118 12.4728 12.6819 12.5849 12.5784 12.7184C12.4788 12.8209 12.4126 12.9497 12.388 13.0885C12.3634 13.2273 12.3814 13.3701 12.4399 13.4991C12.4821 13.6308 12.5746 13.742 12.6985 13.8099C12.8224 13.8777 12.9683 13.8972 13.1065 13.8642C13.2309 13.845 13.3583 13.8558 13.4774 13.8957C13.5965 13.9357 13.7036 14.0035 13.7892 14.0931C13.8748 14.1828 13.9363 14.2915 13.9682 14.4098C14.0001 14.528 14.0015 14.652 13.9721 14.7708C13.9414 15.1161 14.0215 15.4621 14.2016 15.7614C14.2448 15.8453 14.2838 15.9125 14.4093 15.9041C14.7902 15.8789 15.5217 15.0646 15.4178 14.6953C15.3733 14.5739 15.3746 14.4411 15.4213 14.3205C15.468 14.1999 15.5573 14.0992 15.6732 14.0363C15.8515 13.8927 15.9848 13.7037 16.0585 13.4907C15.5953 13.6124 15.4222 13.3857 15.288 13.0667L15.275 13.0709ZM15.2274 16.4875H13.1541C12.9983 16.4875 12.8641 16.4875 12.8727 16.7016C12.8814 16.9156 13.0026 16.9282 13.1627 16.9282H15.2361C15.4049 16.9282 15.4914 16.8527 15.4871 16.6764C15.4828 16.5001 15.3702 16.4833 15.2404 16.4833L15.2274 16.4875ZM15.1798 17.0919H13.2017C13.1702 17.0886 13.1383 17.0922 13.1083 17.1024C13.0784 17.1126 13.0513 17.1292 13.0288 17.151C13.0064 17.1727 12.9893 17.199 12.9788 17.2281C12.9682 17.2571 12.9645 17.288 12.968 17.3186C12.968 17.4823 13.0632 17.5284 13.2104 17.5242H15.1452C15.2837 17.5242 15.3919 17.5242 15.3919 17.3312C15.3919 17.1381 15.3486 17.0877 15.1928 17.0877L15.1798 17.0919ZM7.77382 9.80126L10.0766 7.56831C9.46584 7.56831 8.88013 7.80356 8.44828 8.22232C8.01643 8.64108 7.77382 9.20904 7.77382 9.80126Z" fill="#13162D"/>
<path d="M96.1784 11.8026C95.0725 11.5091 93.8942 11.615 92.8628 12.1006C92.8628 11.3871 92.8628 10.7491 92.8628 10.1111C92.8784 9.94784 92.8588 9.78317 92.8053 9.62759C92.7518 9.472 92.6656 9.3289 92.552 9.20735C92.4385 9.0858 92.3001 8.98846 92.1457 8.9215C91.9913 8.85454 91.8243 8.81943 91.6551 8.81838C91.4824 8.8174 91.3113 8.85101 91.1526 8.91711C90.9938 8.9832 90.8509 9.08036 90.7326 9.2025C90.6144 9.32463 90.5234 9.46912 90.4654 9.62691C90.4074 9.78471 90.3837 9.95241 90.3956 10.1195V16.0545C90.3977 16.6502 90.532 17.2386 90.7895 17.7796C91.1952 18.6994 91.9108 19.4585 92.8192 19.9328C93.7277 20.4071 94.7752 20.5685 95.7905 20.3906C96.8058 20.2128 97.7288 19.7061 98.4086 18.9535C99.0884 18.2009 99.4848 17.2469 99.5329 16.2476C99.5999 15.2428 99.3006 14.2473 98.6875 13.4348C98.0743 12.6223 97.1862 12.0446 96.1784 11.8026ZM94.9491 18.065C94.4042 18.0442 93.8874 17.8247 93.5022 17.4504C93.117 17.0761 92.8917 16.5745 92.8714 16.0461C92.8974 15.5101 93.1313 15.0033 93.5262 14.6274C93.9211 14.2515 94.4479 14.0341 95.001 14.0188C95.5544 14.0255 96.0823 14.245 96.4687 14.6292C96.8551 15.0133 97.0683 15.5305 97.0614 16.0671C97.0545 16.6036 96.8281 17.1155 96.4319 17.4902C96.0358 17.8649 95.5024 18.0716 94.9491 18.065Z" fill="#13162D"/>
<path d="M70.7784 11.9665C70.171 11.7301 69.5196 11.6185 68.8655 11.6387C68.2113 11.659 67.5686 11.8106 66.978 12.084C66.978 11.3705 66.978 10.7325 66.978 10.0945C66.9822 9.92804 66.9514 9.7625 66.8876 9.60791C66.8238 9.45332 66.7283 9.3129 66.6069 9.19517C66.4855 9.07743 66.3407 8.98482 66.1813 8.92297C66.0219 8.86111 65.8511 8.83129 65.6795 8.83532C65.5112 8.84255 65.3462 8.8829 65.1944 8.95391C65.0427 9.02492 64.9075 9.12511 64.797 9.24839C64.6864 9.37167 64.6029 9.51546 64.5515 9.67102C64.5001 9.82657 64.4818 9.99065 64.4978 10.1533C64.4978 12.1176 64.4978 14.0777 64.4978 16.0294C64.4912 16.8564 64.7367 17.6668 65.2034 18.3589C65.7029 19.1469 66.4454 19.7624 67.3258 20.1184C68.2061 20.4744 69.1797 20.5528 70.1085 20.3425C71.0374 20.1322 71.8744 19.6438 72.5012 18.9466C73.1279 18.2493 73.5125 17.3785 73.6005 16.4576C73.7347 14.3631 72.6916 12.6884 70.7784 11.9665ZM69.047 18.0651C68.4932 18.0552 67.9657 17.8343 67.5785 17.4502C67.1914 17.0662 66.9756 16.5497 66.978 16.0127C67.005 15.4852 67.2361 14.9869 67.6253 14.6174C68.0144 14.2478 68.5329 14.0341 69.0773 14.019C69.6306 14.0229 70.1597 14.2397 70.5481 14.6219C70.9365 15.004 71.1525 15.5202 71.1485 16.0567C71.1444 16.5933 70.9208 17.1063 70.5267 17.483C70.1326 17.8596 69.6003 18.069 69.047 18.0651Z" fill="#13162D"/>
<path d="M42.7467 12.097C44.2747 11.4968 45.716 11.4716 47.0752 12.2103C47.7873 12.5594 48.384 13.0955 48.7973 13.7574C49.2106 14.4194 49.4237 15.1806 49.4125 15.9543C49.4125 17.033 49.4125 18.1159 49.4125 19.1946C49.4257 19.362 49.4029 19.5303 49.3458 19.6888C49.2886 19.8473 49.1982 19.9926 49.0803 20.1156C48.9624 20.2386 48.8196 20.3366 48.6607 20.4035C48.5019 20.4704 48.3305 20.5046 48.1573 20.5041C47.9884 20.4967 47.8227 20.4566 47.67 20.3861C47.5173 20.3157 47.3806 20.2163 47.2681 20.0939C47.1556 19.9715 47.0695 19.8285 47.0148 19.6734C46.9601 19.5182 46.9379 19.354 46.9496 19.1904C46.9496 18.1705 46.9496 17.1505 46.9496 16.1306C46.9564 15.8188 46.889 15.5097 46.7527 15.2273C46.6165 14.9448 46.415 14.6965 46.1639 14.5017C45.9127 14.3069 45.6187 14.1708 45.3046 14.1039C44.9905 14.037 44.6648 14.0411 44.3526 14.1159C43.9043 14.2407 43.5095 14.5026 43.2272 14.8627C42.9448 15.2227 42.79 15.6615 42.7857 16.1138C42.7857 17.1044 42.7857 18.0949 42.7857 19.0813C42.7857 19.82 42.5043 20.2397 41.9546 20.4202C41.1106 20.7014 40.3141 20.0886 40.3055 19.161C40.3055 17.713 40.3055 16.2691 40.3055 14.821C40.3055 13.2848 40.3055 11.7486 40.3055 10.204C40.2841 10.032 40.3027 9.85752 40.3598 9.69334C40.4169 9.52916 40.5112 9.37943 40.6356 9.25511C40.7601 9.13079 40.9116 9.03503 41.0792 8.97481C41.2467 8.9146 41.4261 8.89145 41.604 8.90708C41.8952 8.90016 42.1776 9.0038 42.391 9.1959C42.6045 9.388 42.7321 9.65337 42.7467 9.93542C42.7987 10.6322 42.7467 11.3331 42.7467 12.097Z" fill="#13162D"/>
<path d="M55.1882 11.652C54.177 11.5709 53.1664 11.8146 52.3122 12.3455C51.458 12.8765 50.8077 13.6652 50.4615 14.5901C50.1471 15.4364 50.1082 16.3559 50.3499 17.2243C50.5916 18.0928 51.1023 18.8684 51.8131 19.4465C52.5239 20.0245 53.4005 20.3771 54.3245 20.4566C55.2485 20.5362 56.1755 20.3388 56.9801 19.8912C57.169 19.7804 57.3204 19.6185 57.4158 19.4253C57.5111 19.2322 57.5462 19.0163 57.5169 18.8041C57.4978 18.5821 57.414 18.3699 57.2753 18.1923C57.1366 18.0147 56.9486 17.879 56.7334 17.801C56.5398 17.7377 56.3346 17.7144 56.1312 17.7325C55.9277 17.7505 55.7303 17.8096 55.5517 17.9059C55.3344 18.0106 55.0976 18.072 54.8554 18.0863C54.6132 18.1006 54.3705 18.0677 54.1416 17.9894C53.9127 17.9111 53.7024 17.7891 53.5231 17.6306C53.3437 17.472 53.199 17.2802 53.0975 17.0665C54.8289 17.0665 56.478 17.0665 58.1445 17.0665C58.3018 17.0849 58.4613 17.0683 58.611 17.018C58.7606 16.9677 58.8965 16.885 59.0083 16.7761C59.1201 16.6673 59.2049 16.5352 59.2562 16.3899C59.3075 16.2446 59.3241 16.0898 59.3045 15.9374C59.2612 13.8346 57.3134 11.8157 55.1882 11.652ZM53.0845 15.0098C53.2376 14.7158 53.4718 14.4688 53.761 14.2962C54.0503 14.1236 54.3832 14.0322 54.7229 14.0322C55.0625 14.0322 55.3954 14.1236 55.6847 14.2962C55.9739 14.4688 56.2081 14.7158 56.3612 15.0098H53.0845Z" fill="#13162D"/>
<path d="M31.2209 13.1246C31.2209 12.106 31.2209 11.0861 31.2209 10.0647C31.2074 9.90106 31.2297 9.73646 31.2863 9.5817C31.343 9.42694 31.4326 9.28552 31.5495 9.16667C31.6663 9.04782 31.8077 8.95422 31.9644 8.89199C32.1211 8.82976 32.2896 8.80031 32.4589 8.80556C32.6278 8.7994 32.7963 8.82593 32.9545 8.8836C33.1127 8.94127 33.2575 9.02894 33.3804 9.14147C33.5033 9.25401 33.6018 9.38915 33.6703 9.53903C33.7387 9.6889 33.7757 9.85049 33.779 10.0144C33.779 10.3963 33.779 10.7783 33.779 11.156C33.779 11.4163 33.8483 11.4918 34.1166 11.4876C35.0602 11.4708 36.0024 11.4708 36.9431 11.4876C37.2181 11.4706 37.491 11.5442 37.7173 11.6966C37.9437 11.849 38.1102 12.0712 38.1897 12.3271C38.2669 12.5926 38.2538 12.8752 38.1525 13.1329C38.0511 13.3907 37.8669 13.61 37.627 13.7583C37.4119 13.8874 37.161 13.9489 36.9085 13.9346C35.9822 13.9346 35.0559 13.9346 34.1296 13.9346C33.8699 13.9346 33.7704 13.985 33.779 14.2578C33.8007 14.8202 33.779 15.3827 33.779 15.9367C33.7811 16.3302 33.8991 16.7149 34.1191 17.0455C34.3391 17.3761 34.6519 17.6389 35.0207 17.803C35.3895 17.967 35.799 18.0255 36.2009 17.9715C36.6028 17.9175 36.9805 17.7532 37.2894 17.4981C37.4958 17.295 37.7692 17.1686 38.0619 17.141C38.3546 17.1134 38.648 17.1863 38.8909 17.347C39.1206 17.4835 39.2982 17.6889 39.3966 17.932C39.495 18.1752 39.509 18.4428 39.4363 18.6943C39.3818 18.901 39.2641 19.0868 39.0987 19.2274C38.457 19.8335 37.6433 20.2401 36.7619 20.3949C35.8804 20.5497 34.9714 20.4457 34.1513 20.0962C33.3175 19.8235 32.5903 19.3088 32.0685 18.6218C31.5466 17.9348 31.2552 17.1087 31.2339 16.2557C31.1646 15.2106 31.2339 14.1571 31.2339 13.1036L31.2209 13.1246Z" fill="#13162D"/>
<path d="M74.7137 14.6402C74.7137 14.0484 74.7137 13.4524 74.7137 12.8606C74.7025 12.6998 74.7253 12.5386 74.7809 12.3867C74.8364 12.2348 74.9234 12.0956 75.0366 11.9776C75.1497 11.8596 75.2866 11.7654 75.4388 11.7007C75.591 11.636 75.7552 11.6022 75.9214 11.6014C76.0903 11.6008 76.2576 11.6332 76.4133 11.6967C76.569 11.7602 76.7098 11.8536 76.8274 11.9711C76.945 12.0887 77.037 12.2281 77.0977 12.3809C77.1584 12.5337 77.1868 12.6969 77.1809 12.8606C77.1809 13.9435 77.1809 15.0222 77.1809 16.1051C77.2041 16.5807 77.3974 17.0336 77.7276 17.3859C78.0578 17.7383 78.5042 17.9681 78.9902 18.0358C79.2837 18.0904 79.5862 18.0794 79.8747 18.0038C80.1633 17.9282 80.4302 17.7899 80.6555 17.5994C80.8807 17.4089 81.0582 17.1712 81.1747 16.9043C81.2911 16.6374 81.3434 16.3483 81.3276 16.0589C81.3276 15.0264 81.3276 13.9897 81.3276 12.9529C81.3079 12.7821 81.3255 12.6091 81.379 12.4452C81.4326 12.2813 81.521 12.1301 81.6385 12.0014C81.7561 11.8727 81.9001 11.7693 82.0614 11.6979C82.2227 11.6265 82.3977 11.5887 82.575 11.587C82.7522 11.5852 82.928 11.6195 83.0907 11.6877C83.2535 11.7558 83.3997 11.8563 83.52 11.9826C83.6402 12.109 83.7318 12.2584 83.7889 12.4212C83.8459 12.584 83.8671 12.7565 83.8511 12.9278C83.898 14.1605 83.8778 15.3948 83.7905 16.6256C83.6373 17.65 83.1219 18.591 82.3323 19.2877C81.5428 19.9844 80.5282 20.3935 79.462 20.4451C78.362 20.4966 77.2802 20.1584 76.4185 19.4934C75.5567 18.8285 74.9739 17.8822 74.7786 16.8312C74.7245 16.1018 74.7245 15.3696 74.7786 14.6402H74.7137Z" fill="#13162D"/>
<path d="M85.0153 13.7877C85.0153 12.5998 85.0153 11.412 85.0153 10.2284C84.9967 10.0578 85.0149 9.88539 85.0688 9.72205C85.1227 9.55871 85.2111 9.40806 85.3284 9.27971C85.4457 9.15135 85.5893 9.04812 85.75 8.97659C85.9107 8.90506 86.0851 8.8668 86.2619 8.86426C86.9934 8.86426 87.5042 9.40151 87.5085 10.2326C87.5085 12.4235 87.5085 14.6145 87.5085 16.8055C87.5085 17.8632 87.5691 17.9346 88.6382 18.1486C88.9146 18.2108 89.1614 18.3614 89.3389 18.5761C89.5163 18.7908 89.6141 19.0571 89.6165 19.3323C89.5978 19.6162 89.4765 19.8847 89.2738 20.0905C89.0711 20.2962 88.8001 20.4261 88.5084 20.4571C87.934 20.5094 87.3559 20.406 86.8385 20.1584C86.3212 19.9109 85.8848 19.529 85.578 19.0552C85.1918 18.5307 84.9913 17.8989 85.0067 17.2546C85.0197 16.1004 85.0153 14.9293 85.0153 13.7877Z" fill="#13162D"/>
<path d="M10.0762 7.56836L7.77344 9.8013C7.77344 9.20909 8.01605 8.64113 8.44789 8.22237C8.87974 7.80361 9.46545 7.56836 10.0762 7.56836Z" fill="#FEFEFE"/>
<path d="M15.4056 17.3264C15.4056 17.5027 15.2974 17.5195 15.1589 17.5195H13.2241C13.0769 17.5195 12.9774 17.4775 12.9817 17.3138C12.9783 17.2832 12.982 17.2523 12.9925 17.2233C13.003 17.1943 13.0202 17.1679 13.0426 17.1462C13.065 17.1244 13.0922 17.1078 13.1221 17.0976C13.152 17.0874 13.1839 17.0838 13.2154 17.0871H15.1935C15.3494 17.0871 15.4056 17.1795 15.4056 17.3264Z" fill="#FEFEFE"/>
<path d="M15.4995 16.6674C15.4995 16.8437 15.4173 16.9192 15.2485 16.9192H13.1752C13.015 16.9192 12.8938 16.8689 12.8852 16.6926C12.8765 16.5163 13.0107 16.4785 13.1665 16.4785H15.2398C15.3697 16.4827 15.4779 16.4869 15.4995 16.6674Z" fill="#FEFEFE"/>
<path d="M16.0581 13.486C15.9845 13.6991 15.8511 13.8881 15.6729 14.0317C15.5569 14.0946 15.4677 14.1953 15.4209 14.3159C15.3742 14.4365 15.373 14.5692 15.4175 14.6906C15.5214 15.0516 14.7899 15.8743 14.409 15.8995C14.2835 15.8995 14.2445 15.8407 14.2012 15.7568C14.0212 15.4574 13.941 15.1114 13.9718 14.7662C14.0011 14.6474 13.9998 14.5233 13.9679 14.4051C13.936 14.2869 13.8745 14.1782 13.7889 14.0885C13.7033 13.9988 13.5962 13.931 13.4771 13.8911C13.358 13.8512 13.2306 13.8404 13.1061 13.8596C12.9679 13.8925 12.822 13.8731 12.6981 13.8052C12.5742 13.7374 12.4818 13.6262 12.4395 13.4944C12.3811 13.3655 12.363 13.2227 12.3877 13.0839C12.4123 12.945 12.4785 12.8163 12.578 12.7137C12.6816 12.5803 12.8114 12.4682 12.96 12.3839C13.1087 12.2996 13.2731 12.2448 13.4437 12.2227C13.6125 12.2227 13.7554 12.1849 13.9025 12.3444C13.9646 12.4194 14.0494 12.4736 14.145 12.4992C14.2405 12.5248 14.342 12.5206 14.4349 12.4871C14.9067 12.3444 15.1232 12.7053 15.2747 13.0663C15.4262 13.4273 15.595 13.6119 16.0581 13.486Z" fill="#FEFEFE"/>
<path d="M15.9537 14.8917C15.8801 15.0638 15.8974 15.2821 15.6983 15.3828C15.6463 15.408 15.5857 15.345 15.5901 15.2737C15.5901 15.047 15.6463 14.854 15.9233 14.749C15.9363 14.812 15.9666 14.8623 15.9537 14.8917Z" fill="#FEFEFE"/>
<path d="M8.48778 21.1627C8.38823 21.1627 8.28001 21.1333 8.11986 21.1123C8.50942 21.9056 8.886 22.6486 9.24526 23.4041C9.30153 23.5216 9.47899 23.6895 9.33183 23.7902C9.24011 23.8643 9.1263 23.908 9.00711 23.9148C8.88792 23.9216 8.76962 23.8912 8.66957 23.828C8.51136 23.7012 8.39291 23.534 8.32762 23.3453C8.00299 22.636 7.67403 21.9308 7.37537 21.2131C7.31725 21.0574 7.22478 20.9159 7.10441 20.7984C6.98404 20.681 6.83868 20.5905 6.67849 20.5331C5.96862 20.2519 5.26309 19.9539 4.56621 19.6475C3.86933 19.3411 3.8347 19.3159 4.02515 18.5016C5.91753 19.5863 8.00701 20.3087 10.1802 20.6297C10.2668 20.6297 10.375 20.6758 10.2971 20.5205C9.75168 20.1596 9.2063 19.8028 8.6739 19.4334C8.36309 19.2468 8.11316 18.9787 7.95305 18.66C7.79295 18.3413 7.72922 17.9852 7.76926 17.6328L8.87301 18.5562C9.76546 19.3126 10.7921 19.9056 11.9029 20.3065C12.1931 20.4277 12.5189 20.4421 12.8193 20.3471C13.1197 20.252 13.3741 20.0541 13.5347 19.7902C13.63 19.6349 13.6776 19.5678 13.4265 19.4922C13.3206 19.4587 13.2229 19.4044 13.1395 19.3326C13.0562 19.2608 12.9891 19.1731 12.9424 19.075C12.8957 18.9769 12.8703 18.8705 12.868 18.7624C12.8656 18.6544 12.8863 18.547 12.9288 18.4471C12.9556 18.2721 13.0514 18.1141 13.1958 18.0061C13.3403 17.8981 13.5222 17.8486 13.7035 17.8679C13.9849 17.8679 14.2706 17.8679 14.5692 17.8679C14.6669 17.8574 14.7657 17.8659 14.8599 17.8929C14.9541 17.9198 15.0418 17.9647 15.1179 18.0249C15.1941 18.085 15.2571 18.1593 15.3033 18.2433C15.3496 18.3273 15.3781 18.4194 15.3873 18.5142C15.4609 19.0389 15.2661 19.3915 14.7857 19.488C14.7106 19.4965 14.64 19.5266 14.5829 19.5745C14.5258 19.6224 14.4848 19.6859 14.4654 19.7566C14.2896 20.2309 13.9639 20.6393 13.5347 20.9235H16.1967C15.5302 21.4817 14.8982 21.8175 14.1104 21.7629C12.2233 21.7002 10.3438 21.4996 8.48778 21.1627Z" fill="#FEFEFE"/>
<path d="M16.958 14.2081C16.8923 14.3293 16.8155 14.4445 16.7286 14.5523C16.7091 14.5861 16.6823 14.6154 16.6499 14.638C16.6175 14.6606 16.5804 14.6761 16.5412 14.6833C16.502 14.6905 16.4616 14.6893 16.4229 14.6797C16.3843 14.6701 16.3482 14.6524 16.3174 14.6279C16.29 14.6057 16.2675 14.5784 16.2512 14.5476C16.235 14.5168 16.2254 14.4831 16.223 14.4486C16.2205 14.414 16.2253 14.3794 16.2371 14.3467C16.2489 14.3141 16.2673 14.284 16.2914 14.2585C16.4885 13.9827 16.6349 13.676 16.7242 13.3519C16.8258 12.9679 16.8323 12.566 16.7434 12.1791C16.6545 11.7921 16.4727 11.431 16.2127 11.125C15.9527 10.8191 15.6218 10.577 15.2471 10.4184C14.8724 10.2599 14.4644 10.1894 14.0562 10.2126C13.6481 10.2358 13.2514 10.3522 12.8984 10.5522C12.5454 10.7522 12.2461 11.0301 12.0248 11.3635C11.8035 11.6968 11.6665 12.0761 11.6249 12.4705C11.5833 12.8649 11.6383 13.2632 11.7855 13.6331C11.8149 13.719 11.8496 13.8031 11.8894 13.8849C11.9759 14.0654 12.1145 14.2753 11.8374 14.3886C11.5604 14.5019 11.4825 14.2711 11.4046 14.0906C11.0583 13.4436 10.9809 12.6926 11.1882 11.992C11.3284 11.4239 11.6401 10.9092 12.0834 10.5137C12.5267 10.1182 13.0815 9.85987 13.677 9.77161C14.2509 9.64986 14.8493 9.69845 15.3944 9.91105C15.9394 10.1237 16.4058 10.4904 16.7329 10.9636C17.0956 11.4229 17.3105 11.9758 17.3505 12.5529C17.3906 13.1301 17.254 13.7059 16.958 14.2081Z" fill="#FEFEFE"/>
<path d="M8.48778 21.1627C8.38823 21.1627 8.28001 21.1333 8.11986 21.1123C8.50942 21.9056 8.886 22.6486 9.24526 23.4041C9.30153 23.5216 9.47899 23.6895 9.33183 23.7902C9.24011 23.8643 9.1263 23.908 9.00711 23.9148C8.88792 23.9216 8.76962 23.8912 8.66957 23.828C8.51136 23.7012 8.39291 23.534 8.32762 23.3453C8.00299 22.636 7.67403 21.9308 7.37537 21.2131C7.31725 21.0574 7.22478 20.9159 7.10441 20.7984C6.98404 20.681 6.83868 20.5905 6.67849 20.5331C5.96862 20.2519 5.26309 19.9539 4.56621 19.6475C3.86933 19.3411 3.8347 19.3159 4.02515 18.5016C5.91753 19.5863 8.00701 20.3087 10.1802 20.6297C10.2668 20.6297 10.375 20.6758 10.2971 20.5205C9.75168 20.1596 9.2063 19.8028 8.6739 19.4334C8.36309 19.2468 8.11316 18.9787 7.95305 18.66C7.79295 18.3413 7.72922 17.9852 7.76926 17.6328L8.87301 18.5562C9.76546 19.3126 10.7921 19.9056 11.9029 20.3065C12.1931 20.4277 12.5189 20.4421 12.8193 20.3471C13.1197 20.252 13.3741 20.0541 13.5347 19.7902C13.63 19.6349 13.6776 19.5678 13.4265 19.4922C13.3206 19.4587 13.2229 19.4044 13.1395 19.3326C13.0562 19.2608 12.9891 19.1731 12.9424 19.075C12.8957 18.9769 12.8703 18.8705 12.868 18.7624C12.8656 18.6544 12.8863 18.547 12.9288 18.4471C12.9556 18.2721 13.0514 18.1141 13.1958 18.0061C13.3403 17.8981 13.5222 17.8486 13.7035 17.8679C13.9849 17.8679 14.2706 17.8679 14.5692 17.8679C14.6669 17.8574 14.7657 17.8659 14.8599 17.8929C14.9541 17.9198 15.0418 17.9647 15.1179 18.0249C15.1941 18.085 15.2571 18.1593 15.3033 18.2433C15.3496 18.3273 15.3781 18.4194 15.3873 18.5142C15.4609 19.0389 15.2661 19.3915 14.7857 19.488C14.7106 19.4965 14.64 19.5266 14.5829 19.5745C14.5258 19.6224 14.4848 19.6859 14.4654 19.7566C14.2896 20.2309 13.9639 20.6393 13.5347 20.9235H16.1967C15.5302 21.4817 14.8982 21.8175 14.1104 21.7629C12.2233 21.7002 10.3438 21.4996 8.48778 21.1627Z" fill="#13162D"/>
<path d="M16.0581 13.486C15.9845 13.6991 15.8511 13.8881 15.6729 14.0317C15.5569 14.0946 15.4677 14.1953 15.4209 14.3159C15.3742 14.4365 15.373 14.5692 15.4175 14.6906C15.5214 15.0516 14.7899 15.8743 14.409 15.8995C14.2835 15.8995 14.2445 15.8407 14.2012 15.7568C14.0212 15.4574 13.941 15.1114 13.9718 14.7662C14.0011 14.6474 13.9998 14.5233 13.9679 14.4051C13.936 14.2869 13.8745 14.1782 13.7889 14.0885C13.7033 13.9988 13.5962 13.931 13.4771 13.8911C13.358 13.8512 13.2306 13.8404 13.1061 13.8596C12.9679 13.8925 12.822 13.8731 12.6981 13.8052C12.5742 13.7374 12.4818 13.6262 12.4395 13.4944C12.3811 13.3655 12.363 13.2227 12.3877 13.0839C12.4123 12.945 12.4785 12.8163 12.578 12.7137C12.6816 12.5803 12.8114 12.4682 12.96 12.3839C13.1087 12.2996 13.2731 12.2448 13.4437 12.2227C13.6125 12.2227 13.7554 12.1849 13.9025 12.3444C13.9646 12.4194 14.0494 12.4736 14.145 12.4992C14.2405 12.5248 14.342 12.5206 14.4349 12.4871C14.9067 12.3444 15.1232 12.7053 15.2747 13.0663C15.4262 13.4273 15.595 13.6119 16.0581 13.486Z" fill="#FCBE17"/>
<path d="M16.958 14.2081C16.8923 14.3293 16.8155 14.4445 16.7286 14.5523C16.7091 14.5861 16.6823 14.6154 16.6499 14.638C16.6175 14.6606 16.5804 14.6761 16.5412 14.6833C16.502 14.6905 16.4616 14.6893 16.4229 14.6797C16.3843 14.6701 16.3482 14.6524 16.3174 14.6279C16.29 14.6057 16.2675 14.5784 16.2512 14.5476C16.235 14.5168 16.2254 14.4831 16.223 14.4486C16.2205 14.414 16.2253 14.3794 16.2371 14.3467C16.2489 14.3141 16.2673 14.284 16.2914 14.2585C16.4885 13.9827 16.6349 13.676 16.7242 13.3519C16.8258 12.9679 16.8323 12.566 16.7434 12.1791C16.6545 11.7921 16.4727 11.431 16.2127 11.125C15.9527 10.8191 15.6218 10.577 15.2471 10.4184C14.8724 10.2599 14.4644 10.1894 14.0562 10.2126C13.6481 10.2358 13.2514 10.3522 12.8984 10.5522C12.5454 10.7522 12.2461 11.0301 12.0248 11.3635C11.8035 11.6968 11.6665 12.0761 11.6249 12.4705C11.5833 12.8649 11.6383 13.2632 11.7855 13.6331C11.8149 13.719 11.8496 13.8031 11.8894 13.8849C11.9759 14.0654 12.1145 14.2753 11.8374 14.3886C11.5604 14.5019 11.4825 14.2711 11.4046 14.0906C11.0583 13.4436 10.9809 12.6926 11.1882 11.992C11.3284 11.4239 11.6401 10.9092 12.0834 10.5137C12.5267 10.1182 13.0815 9.85987 13.677 9.77161C14.2509 9.64986 14.8493 9.69845 15.3944 9.91105C15.9394 10.1237 16.4058 10.4904 16.7329 10.9636C17.0956 11.4229 17.3105 11.9758 17.3505 12.5529C17.3906 13.1301 17.254 13.7059 16.958 14.2081Z" fill="#FCBE18"/>
<path d="M10.0762 7.56836L7.77344 9.8013C7.77344 9.20909 8.01605 8.64113 8.44789 8.22237C8.87974 7.80361 9.46545 7.56836 10.0762 7.56836Z" fill="#161930"/>
<path d="M15.4995 16.6674C15.4995 16.8437 15.4173 16.9192 15.2485 16.9192H13.1752C13.015 16.9192 12.8938 16.8689 12.8852 16.6926C12.8765 16.5163 13.0107 16.4785 13.1665 16.4785H15.2398C15.3697 16.4827 15.4779 16.4869 15.4995 16.6674Z" fill="#FCC224"/>
<path d="M15.4056 17.3264C15.4056 17.5027 15.2974 17.5195 15.1589 17.5195H13.2241C13.0769 17.5195 12.9774 17.4775 12.9817 17.3138C12.9783 17.2832 12.982 17.2523 12.9925 17.2233C13.003 17.1943 13.0202 17.1679 13.0426 17.1462C13.065 17.1244 13.0922 17.1078 13.1221 17.0976C13.152 17.0874 13.1839 17.0838 13.2154 17.0871H15.1935C15.3494 17.0871 15.4056 17.1795 15.4056 17.3264Z" fill="#FCC224"/>
<path d="M15.9537 14.8917C15.8801 15.0638 15.8974 15.2821 15.6983 15.3828C15.6463 15.408 15.5857 15.345 15.5901 15.2737C15.5901 15.047 15.6463 14.854 15.9233 14.749C15.9363 14.812 15.9666 14.8623 15.9537 14.8917Z" fill="#FCC736"/>
<path d="M10.5736 20.6548C10.5133 20.6906 10.443 20.7074 10.3725 20.7029C10.302 20.6984 10.2346 20.6728 10.1797 20.6296C10.2663 20.6296 10.3745 20.6758 10.2966 20.5205C10.3701 20.5583 10.4437 20.5961 10.5736 20.6548Z" fill="#13162D"/>
<path d="M61.7015 24.6943H63.162V25.1901H62.6806V27.3369H62.1704V25.1901H61.7015V24.6943ZM65.4112 26.5016H63.8357C63.8584 26.6405 63.9189 26.7513 64.0171 26.8339C64.1165 26.9153 64.2429 26.9561 64.3962 26.9561C64.5794 26.9561 64.7369 26.892 64.8687 26.7638L65.2818 26.9579C65.1788 27.104 65.0555 27.2124 64.9118 27.283C64.7681 27.3525 64.5974 27.3872 64.3998 27.3872C64.0932 27.3872 63.8435 27.2908 63.6506 27.098C63.4578 26.904 63.3614 26.6614 63.3614 26.3704C63.3614 26.0722 63.4572 25.8249 63.6489 25.6285C63.8417 25.4309 64.083 25.3321 64.3728 25.3321C64.6806 25.3321 64.9309 25.4309 65.1238 25.6285C65.3166 25.8249 65.413 26.0848 65.413 26.4081L65.4112 26.5016ZM64.919 26.1153C64.8866 26.0063 64.8225 25.9177 64.7267 25.8494C64.6321 25.7812 64.5219 25.747 64.3962 25.747C64.2597 25.747 64.1399 25.7854 64.0369 25.862C63.9722 25.9099 63.9123 25.9944 63.8572 26.1153H64.919ZM67.7233 25.7776L67.3155 26.0021C67.2388 25.9219 67.1628 25.8662 67.0873 25.8351C67.013 25.8039 66.9256 25.7884 66.825 25.7884C66.6418 25.7884 66.4933 25.8434 66.3795 25.9536C66.2669 26.0626 66.2106 26.2027 66.2106 26.374C66.2106 26.5405 66.2651 26.6764 66.3741 26.7818C66.4831 26.8872 66.6262 26.9399 66.8035 26.9399C67.0226 26.9399 67.1933 26.865 67.3155 26.7153L67.7017 26.9794C67.4921 27.2513 67.1963 27.3872 66.8142 27.3872C66.4705 27.3872 66.201 27.2854 66.0058 27.0818C65.8118 26.8782 65.7148 26.6399 65.7148 26.3668C65.7148 26.1776 65.7621 26.0033 65.8567 25.844C65.9513 25.6848 66.0831 25.5596 66.2519 25.4686C66.422 25.3776 66.6118 25.3321 66.8214 25.3321C67.0154 25.3321 67.1897 25.371 67.3442 25.4488C67.4987 25.5255 67.625 25.6351 67.7233 25.7776ZM68.1688 24.6278H68.6556V25.58C68.7514 25.4973 68.8478 25.4356 68.9449 25.3949C69.0419 25.353 69.1401 25.3321 69.2395 25.3321C69.4335 25.3321 69.597 25.3991 69.7299 25.5333C69.8437 25.6494 69.9006 25.8201 69.9006 26.0453V27.3369H69.4173V26.48C69.4173 26.2536 69.4065 26.1003 69.385 26.0201C69.3634 25.9399 69.3263 25.88 69.2736 25.8405C69.2221 25.8009 69.158 25.7812 69.0814 25.7812C68.982 25.7812 68.8963 25.8141 68.8245 25.88C68.7538 25.9458 68.7047 26.0357 68.6772 26.1494C68.6628 26.2081 68.6556 26.3423 68.6556 26.5519V27.3369H68.1688V24.6278ZM71.2012 24.6943H72.6618V25.1901H72.1803V27.3369H71.6701V25.1901H71.2012V24.6943ZM74.3971 25.3824H74.8858V27.3369H74.3971V27.1303C74.3013 27.2213 74.2049 27.2872 74.1079 27.3279C74.0121 27.3675 73.9079 27.3872 73.7953 27.3872C73.5426 27.3872 73.3241 27.2896 73.1396 27.0944C72.9552 26.898 72.863 26.6543 72.863 26.3632C72.863 26.0614 72.9522 25.8141 73.1306 25.6213C73.3091 25.4285 73.5259 25.3321 73.781 25.3321C73.8983 25.3321 74.0085 25.3542 74.1115 25.3985C74.2145 25.4428 74.3097 25.5093 74.3971 25.5979V25.3824ZM73.8816 25.7848C73.7295 25.7848 73.6031 25.8387 73.5025 25.9464C73.4019 26.053 73.3516 26.1902 73.3516 26.3578C73.3516 26.5267 73.4025 26.6656 73.5043 26.7746C73.6073 26.8836 73.7337 26.9381 73.8834 26.9381C74.0379 26.9381 74.166 26.8848 74.2678 26.7782C74.3696 26.6704 74.4205 26.5297 74.4205 26.356C74.4205 26.186 74.3696 26.0482 74.2678 25.9429C74.166 25.8375 74.0373 25.7848 73.8816 25.7848ZM75.3295 24.6278H75.82V27.3369H75.3295V24.6278ZM78.2236 26.5016H76.6481C76.6709 26.6405 76.7314 26.7513 76.8296 26.8339C76.929 26.9153 77.0553 26.9561 77.2086 26.9561C77.3919 26.9561 77.5494 26.892 77.6811 26.7638L78.0943 26.9579C77.9913 27.104 77.8679 27.2124 77.7242 27.283C77.5805 27.3525 77.4098 27.3872 77.2122 27.3872C76.9056 27.3872 76.6559 27.2908 76.4631 27.098C76.2703 26.904 76.1739 26.6614 76.1739 26.3704C76.1739 26.0722 76.2697 25.8249 76.4613 25.6285C76.6541 25.4309 76.8954 25.3321 77.1853 25.3321C77.4931 25.3321 77.7434 25.4309 77.9362 25.6285C78.129 25.8249 78.2254 26.0848 78.2254 26.4081L78.2236 26.5016ZM77.7314 26.1153C77.6991 26.0063 77.635 25.9177 77.5392 25.8494C77.4446 25.7812 77.3344 25.747 77.2086 25.747C77.0721 25.747 76.9523 25.7854 76.8493 25.862C76.7847 25.9099 76.7248 25.9944 76.6697 26.1153H77.7314ZM78.6225 25.3824H79.1111V25.5818C79.2225 25.4883 79.3231 25.4237 79.4129 25.3877C79.5039 25.3506 79.5967 25.3321 79.6914 25.3321C79.8854 25.3321 80.05 25.3997 80.1854 25.5351C80.2992 25.65 80.356 25.8201 80.356 26.0453V27.3369H79.871V26.48C79.871 26.2465 79.8602 26.0914 79.8387 26.0147C79.8183 25.9381 79.7818 25.88 79.7291 25.8405C79.6776 25.7997 79.6135 25.7794 79.5369 25.7794C79.4375 25.7794 79.3518 25.8129 79.28 25.88C79.2093 25.9458 79.1602 26.0375 79.1326 26.1548C79.1183 26.2159 79.1111 26.3483 79.1111 26.5519V27.3369H78.6225V25.3824ZM80.8914 24.662H81.38V25.3824H81.6711V25.8045H81.38V27.3369H80.8914V25.8045H80.6399V25.3824H80.8914V24.662ZM82.9843 24.6943H83.4837V27.3369H82.9843V24.6943ZM83.9975 25.3824H84.4861V25.5818C84.5975 25.4883 84.6981 25.4237 84.7879 25.3877C84.879 25.3506 84.9718 25.3321 85.0664 25.3321C85.2604 25.3321 85.4251 25.3997 85.5604 25.5351C85.6742 25.65 85.7311 25.8201 85.7311 26.0453V27.3369H85.246V26.48C85.246 26.2465 85.2353 26.0914 85.2137 26.0147C85.1933 25.9381 85.1568 25.88 85.1041 25.8405C85.0526 25.7997 84.9886 25.7794 84.9119 25.7794C84.8125 25.7794 84.7269 25.8129 84.655 25.88C84.5843 25.9458 84.5352 26.0375 84.5077 26.1548C84.4933 26.2159 84.4861 26.3483 84.4861 26.5519V27.3369H83.9975V25.3824ZM88.1204 25.7776L87.7126 26.0021C87.636 25.9219 87.5599 25.8662 87.4845 25.8351C87.4102 25.8039 87.3228 25.7884 87.2222 25.7884C87.0389 25.7884 86.8904 25.8434 86.7766 25.9536C86.6641 26.0626 86.6078 26.2027 86.6078 26.374C86.6078 26.5405 86.6623 26.6764 86.7713 26.7818C86.8802 26.8872 87.0234 26.9399 87.2006 26.9399C87.4198 26.9399 87.5904 26.865 87.7126 26.7153L88.0988 26.9794C87.8893 27.2513 87.5934 27.3872 87.2114 27.3872C86.8677 27.3872 86.5982 27.2854 86.403 27.0818C86.209 26.8782 86.1119 26.6399 86.1119 26.3668C86.1119 26.1776 86.1593 26.0033 86.2539 25.844C86.3485 25.6848 86.4802 25.5596 86.6491 25.4686C86.8192 25.3776 87.009 25.3321 87.2186 25.3321C87.4126 25.3321 87.5868 25.371 87.7413 25.4488C87.8958 25.5255 88.0222 25.6351 88.1204 25.7776ZM88.5623 25.3824H89.0582V26.3237C89.0582 26.5069 89.0707 26.6345 89.0959 26.7064C89.121 26.777 89.1612 26.8321 89.2163 26.8716C89.2725 26.9112 89.3414 26.9309 89.4228 26.9309C89.5043 26.9309 89.5732 26.9117 89.6294 26.8734C89.6869 26.8339 89.7294 26.7764 89.757 26.701C89.7774 26.6447 89.7875 26.5243 89.7875 26.3399V25.3824H90.2798V26.2105C90.2798 26.5519 90.2528 26.7854 90.1989 26.9112C90.1331 27.0644 90.036 27.1824 89.9079 27.2651C89.7797 27.3465 89.6169 27.3872 89.4193 27.3872C89.2049 27.3872 89.0312 27.3393 88.8983 27.2435C88.7665 27.1477 88.6737 27.0141 88.6198 26.8429C88.5815 26.7243 88.5623 26.5087 88.5623 26.1962V25.3824ZM91.2606 24.6278V25.5979C91.3493 25.5093 91.4451 25.4428 91.5481 25.3985C91.6511 25.3542 91.7613 25.3321 91.8786 25.3321C92.1337 25.3321 92.3505 25.4285 92.5289 25.6213C92.7074 25.8141 92.7966 26.0614 92.7966 26.3632C92.7966 26.6543 92.7044 26.898 92.52 27.0944C92.3355 27.2896 92.117 27.3872 91.8643 27.3872C91.7517 27.3872 91.6469 27.3675 91.5499 27.3279C91.4529 27.2872 91.3565 27.2213 91.2606 27.1303V27.3369H90.7738V24.6278H91.2606ZM91.7762 25.7848C91.6217 25.7848 91.4936 25.8375 91.3918 25.9429C91.29 26.0482 91.2391 26.186 91.2391 26.356C91.2391 26.5297 91.29 26.6704 91.3918 26.7782C91.4936 26.8848 91.6217 26.9381 91.7762 26.9381C91.9259 26.9381 92.0517 26.8836 92.1535 26.7746C92.2565 26.6656 92.308 26.5267 92.308 26.3578C92.308 26.1902 92.2577 26.053 92.1571 25.9464C92.0565 25.8387 91.9295 25.7848 91.7762 25.7848ZM94.647 25.3824H95.1356V27.3369H94.647V27.1303C94.5512 27.2213 94.4548 27.2872 94.3578 27.3279C94.2619 27.3675 94.1577 27.3872 94.0452 27.3872C93.7925 27.3872 93.5739 27.2896 93.3895 27.0944C93.205 26.898 93.1128 26.6543 93.1128 26.3632C93.1128 26.0614 93.202 25.8141 93.3805 25.6213C93.5589 25.4285 93.7757 25.3321 94.0308 25.3321C94.1482 25.3321 94.2584 25.3542 94.3614 25.3985C94.4643 25.4428 94.5596 25.5093 94.647 25.5979V25.3824ZM94.1314 25.7848C93.9793 25.7848 93.8529 25.8387 93.7523 25.9464C93.6517 26.053 93.6014 26.1902 93.6014 26.3578C93.6014 26.5267 93.6523 26.6656 93.7541 26.7746C93.8571 26.8836 93.9835 26.9381 94.1332 26.9381C94.2877 26.9381 94.4158 26.8848 94.5176 26.7782C94.6194 26.6704 94.6703 26.5297 94.6703 26.356C94.6703 26.186 94.6194 26.0482 94.5176 25.9429C94.4158 25.8375 94.2871 25.7848 94.1314 25.7848ZM95.6907 24.662H96.1794V25.3824H96.4704V25.8045H96.1794V27.3369H95.6907V25.8045H95.4392V25.3824H95.6907V24.662ZM97.6525 25.3321C97.8369 25.3321 98.01 25.3782 98.1717 25.4704C98.3345 25.5626 98.4615 25.6878 98.5525 25.8458C98.6435 26.0039 98.6891 26.1746 98.6891 26.3578C98.6891 26.5423 98.6429 26.7147 98.5507 26.8752C98.4597 27.0357 98.3351 27.1615 98.1771 27.2525C98.019 27.3423 97.8447 27.3872 97.6543 27.3872C97.374 27.3872 97.1345 27.2878 96.9357 27.089C96.7381 26.889 96.6393 26.6465 96.6393 26.3614C96.6393 26.056 96.7513 25.8015 96.9752 25.5979C97.1716 25.4207 97.3974 25.3321 97.6525 25.3321ZM97.6597 25.7937C97.5076 25.7937 97.3806 25.847 97.2788 25.9536C97.1782 26.059 97.1279 26.1944 97.1279 26.3596C97.1279 26.5297 97.1776 26.6674 97.277 26.7728C97.3776 26.8782 97.5046 26.9309 97.6579 26.9309C97.8112 26.9309 97.9387 26.8776 98.0405 26.771C98.1423 26.6644 98.1932 26.5273 98.1932 26.3596C98.1932 26.192 98.1429 26.056 98.0423 25.9518C97.9429 25.8464 97.8154 25.7937 97.6597 25.7937ZM98.9765 25.3824H99.3969V25.6285C99.4424 25.5315 99.5029 25.4578 99.5783 25.4075C99.6538 25.3572 99.7364 25.3321 99.8262 25.3321C99.8897 25.3321 99.9562 25.3488 100.026 25.3824L99.8729 25.8045C99.8154 25.7758 99.7681 25.7614 99.731 25.7614C99.6556 25.7614 99.5915 25.8081 99.5388 25.9015C99.4873 25.9949 99.4615 26.1782 99.4615 26.4513L99.4633 26.5465V27.3369H98.9765V25.3824Z" fill="#13162D"/>
</g>
<defs>
<clipPath id="clip0_1767_5843">
<rect width="100" height="28" fill="white"/>
</clipPath>
</defs>
</svg>
